<svg width="15" height="12" viewBox="0 0 15 12" fill="none" xmlns="http://www.w3.org/2000/svg">
<path fill-rule="evenodd" clip-rule="evenodd" d="M0 0H15V11.25H0V0Z" fill="#229E45"/>
<path fill-rule="evenodd" clip-rule="evenodd" d="M7.53281 10.2188L14.5992 5.63203L7.49063 1.03125L0.400781 5.64141L7.53281 10.2188Z" fill="#F8E509"/>
<path fill-rule="evenodd" clip-rule="evenodd" d="M10.6125 5.625C10.6125 7.27266 9.27422 8.60859 7.62188 8.60859C7.03141 8.60767 6.45448 8.4317 5.96401 8.10293C5.47354 7.77417 5.09156 7.30736 4.86635 6.76154C4.64114 6.21571 4.58281 5.61537 4.69875 5.0364C4.81468 4.45743 5.09966 3.92583 5.51767 3.5088C5.93568 3.09177 6.46795 2.80804 7.0472 2.69347C7.62644 2.5789 8.22664 2.63864 8.77194 2.86513C9.31723 3.09163 9.78313 3.47471 10.1107 3.96595C10.4384 4.45719 10.613 5.03454 10.6125 5.625Z" fill="#2B49A3"/>
<path fill-rule="evenodd" clip-rule="evenodd" d="M6.63984 7.41328L6.54609 7.35938L6.45234 7.40625L6.47344 7.30078L6.39844 7.22109L6.50391 7.20938L6.55547 7.11563L6.6 7.21406L6.70312 7.23281L6.62578 7.30313L6.63984 7.41328ZM8.64141 7.91953L8.55 7.86563L8.45625 7.9125L8.475 7.80703L8.40234 7.72969L8.50781 7.71797L8.55703 7.62188L8.60391 7.72031L8.70703 7.73906L8.62734 7.81172L8.64141 7.91953ZM7.77891 7.10859L7.69922 7.06172L7.61719 7.10391L7.63594 7.0125L7.57031 6.94453L7.66406 6.93516L7.70625 6.85078L7.74375 6.9375L7.83516 6.95391L7.76484 7.01719L7.77891 7.10859ZM9.80391 6.81797L9.72422 6.77109L9.64219 6.81328L9.66094 6.72187L9.59766 6.65625L9.68906 6.64688L9.73125 6.56484L9.76875 6.64922L9.85781 6.66562L9.78984 6.72656L9.80391 6.81797ZM7.74375 6.21094L7.65 6.15937L7.55625 6.20625L7.575 6.09844L7.50234 6.02109L7.60781 6.00937L7.65703 5.91328L7.70391 6.01172L7.80703 6.03047L7.72734 6.10547L7.74375 6.21094ZM5.27578 5.28516L5.18203 5.23359L5.08828 5.28047L5.11172 5.17266L5.03438 5.09531L5.14219 5.08359L5.18906 4.9875L5.23594 5.08594L5.33906 5.10469L5.26172 5.17734L5.27578 5.28516ZM5.57344 6.51797L5.47969 6.46406L5.38594 6.51094L5.40703 6.40547L5.33203 6.32812L5.4375 6.31406L5.48672 6.22031L5.53359 6.31875L5.63672 6.3375L5.55937 6.41016L5.57344 6.51797ZM8.65313 4.83281L8.56875 4.78594L8.48438 4.82812L8.50312 4.73438L8.4375 4.66406L8.53125 4.65234L8.57578 4.56797L8.61563 4.65703L8.70938 4.67344L8.63906 4.73672L8.65313 4.83281ZM8.48203 5.63437L8.41875 5.59688L8.35078 5.62969L8.36484 5.55469L8.31328 5.50078L8.38828 5.49141L8.42344 5.42578L8.45391 5.49609L8.52422 5.50781L8.47266 5.55937L8.48203 5.63437ZM5.13984 6.74063L5.07656 6.70547L5.01328 6.73594L5.02734 6.66562L4.97812 6.61406L5.04844 6.60469L5.08125 6.54141L5.11172 6.60703L5.18203 6.62109L5.12813 6.66797L5.13984 6.74063ZM9.82031 7.02656L9.76875 7.00078L9.71719 7.02422L9.72891 6.97031L9.68906 6.93281L9.74531 6.92578L9.77344 6.87891L9.79688 6.92578L9.85547 6.9375L9.81094 6.97266" fill="#FFFFEF"/>
<path fill-rule="evenodd" clip-rule="evenodd" d="M5.13984 6.74063L5.07656 6.70547L5.01328 6.73594L5.02734 6.66562L4.97812 6.61406L5.04844 6.60469L5.08125 6.54141L5.11172 6.60703L5.18203 6.62109L5.12813 6.66797" fill="#FFFFEF"/>
<path fill-rule="evenodd" clip-rule="evenodd" d="M5.13984 6.74063L5.07656 6.70547L5.01328 6.73594L5.02734 6.66562L4.97812 6.61406L5.04844 6.60469L5.08125 6.54141L5.11172 6.60703L5.18203 6.62109L5.12813 6.66797L5.13984 6.74063ZM6.11953 6.73828L6.05859 6.70547L5.99531 6.73594L6.00937 6.66563L5.96016 6.61406L6.03047 6.60469L6.06328 6.54141L6.09375 6.60703L6.16406 6.61875L6.11016 6.66797L6.11953 6.73828ZM5.99766 7.06641L5.93672 7.03125L5.87344 7.06406L5.8875 6.99375L5.83828 6.93984L5.90859 6.93047L5.94141 6.86719L5.97188 6.93281L6.04219 6.94688L5.98828 6.99375L5.99766 7.06641ZM8.03672 6.47344L7.97578 6.43594L7.91016 6.46875L7.92422 6.39844L7.87734 6.34453L7.94766 6.3375L7.98047 6.27422L8.00859 6.33984L8.07891 6.35156L8.02734 6.40078L8.03672 6.47344ZM7.43906 6.47109L7.37578 6.43594L7.3125 6.46875L7.32656 6.39844L7.27969 6.34453L7.35 6.3375L7.38281 6.27188L7.41094 6.33984L7.48125 6.35156L7.42969 6.40078L7.43906 6.47109ZM5.81719 6.26484L5.77734 6.24141L5.7375 6.26016L5.74687 6.21563L5.71641 6.18281L5.76094 6.17813L5.77969 6.13828L5.79844 6.18047L5.84297 6.1875L5.81016 6.21797L5.81719 6.26484ZM9.74297 7.28203L9.68203 7.24688L9.61875 7.27969L9.63281 7.20938L9.58359 7.15547L9.65391 7.14609L9.68672 7.08281L9.71719 7.14844L9.7875 7.1625L9.73359 7.20938L9.74297 7.28203ZM9.24609 7.35L9.19453 7.31719L9.14062 7.34531L9.15234 7.28437L9.1125 7.24219L9.17109 7.23516L9.19922 7.18125L9.22266 7.2375L9.28125 7.24688L9.23672 7.28906L9.24609 7.35ZM9.48047 7.34297L9.43359 7.31484L9.38437 7.33828L9.39375 7.28437L9.35625 7.24453L9.41016 7.2375L9.43594 7.19062L9.45938 7.2375L9.51328 7.24922L9.47344 7.28672L9.48047 7.34297ZM10.1555 6.75234L10.1086 6.72891L10.0617 6.75234L10.0734 6.69844L10.0359 6.65859L10.0898 6.65156L10.1133 6.60469L10.1367 6.65391L10.1859 6.66328L10.1484 6.70078L10.1555 6.75234ZM9.23906 7.68047L9.18047 7.64766L9.11719 7.67578L9.13125 7.61016L9.08438 7.56328L9.15469 7.55625L9.18516 7.49766L9.21328 7.55859L9.28359 7.57031L9.22969 7.61484L9.23906 7.68047ZM9.24375 7.94766L9.1875 7.91484L9.13125 7.94531L9.14531 7.87969L9.10078 7.83281L9.16406 7.82344L9.19219 7.76484L9.21797 7.82578L9.28125 7.8375L9.23438 7.88438L9.24375 7.94766ZM8.78906 7.34297L8.74453 7.31484L8.69766 7.33828L8.70703 7.28672L8.67188 7.24688L8.72344 7.24219L8.74688 7.19531L8.77031 7.24219L8.82187 7.25156L8.78437 7.28906L8.78906 7.34297ZM8.36719 7.34297L8.32031 7.31484L8.27344 7.33828L8.28516 7.28672L8.24766 7.24688L8.30156 7.24219L8.325 7.19531L8.34844 7.24219L8.39766 7.25156L8.36016 7.28906L8.36719 7.34297ZM7.64766 6.7125L7.60078 6.68672L7.55391 6.71016L7.56562 6.65625L7.52813 6.61875L7.57969 6.61172L7.60312 6.56484L7.62656 6.61172L7.67813 6.62344L7.64062 6.65859L7.64766 6.7125ZM7.72734 7.99453L7.68984 7.97344L7.64766 7.99453L7.65703 7.94766L7.62656 7.91484L7.67109 7.91016L7.69219 7.87031L7.71094 7.9125L7.75547 7.91953L7.72266 7.95L7.72734 7.99453ZM6.63984 5.92031L6.54609 5.86641L6.45234 5.91328L6.47344 5.80781L6.39844 5.73047L6.50391 5.71641L6.55547 5.62266L6.6 5.72109L6.70312 5.73984L6.62578 5.8125" fill="#FFFFEF"/>
<path fill-rule="evenodd" clip-rule="evenodd" d="M10.4156 6.69844C10.4737 6.54777 10.5192 6.39255 10.5516 6.23438C8.9625 4.83984 7.19297 4.125 4.95703 4.27266C4.87594 4.42957 4.80926 4.59353 4.75781 4.7625C7.40625 4.50938 9.35156 5.68125 10.4156 6.69844Z" fill="white"/>
<path d="M9.70312 5.91562L9.75703 5.94609C9.74898 5.96201 9.74651 5.98017 9.75 5.99766C9.75549 6.01462 9.76722 6.02886 9.78281 6.0375C9.79922 6.04922 9.81562 6.05625 9.82969 6.05391C9.84375 6.05391 9.85313 6.04688 9.86016 6.0375C9.86424 6.03128 9.86591 6.02377 9.86484 6.01641C9.86292 6.00775 9.8589 5.9997 9.85312 5.99297C9.84844 5.98594 9.83672 5.96953 9.81797 5.95078C9.7987 5.93089 9.78426 5.90683 9.77578 5.88047C9.76993 5.86051 9.77145 5.83912 9.78005 5.8202C9.78866 5.80127 9.80378 5.78606 9.82266 5.77734C9.8397 5.77023 9.85854 5.76859 9.87656 5.77266C9.8986 5.77773 9.91934 5.78731 9.9375 5.80078C9.97031 5.82422 9.99141 5.84766 9.99844 5.87578C10.0017 5.88894 10.0021 5.90263 9.99968 5.91596C9.99725 5.92929 9.99204 5.94195 9.98438 5.95312L9.92813 5.91797C9.93516 5.90391 9.9375 5.88984 9.93281 5.87813C9.93047 5.86641 9.92109 5.85469 9.90469 5.84531C9.89265 5.83563 9.87792 5.8299 9.8625 5.82891C9.85825 5.82876 9.85404 5.82978 9.85033 5.83184C9.84661 5.83391 9.84353 5.83694 9.84141 5.84062C9.83672 5.84766 9.83672 5.85469 9.83906 5.86406C9.84141 5.87344 9.85312 5.89219 9.87656 5.91562C9.9 5.93906 9.91406 5.96016 9.92344 5.97422C9.93181 5.98958 9.93559 6.00702 9.93435 6.02447C9.9331 6.04192 9.92688 6.05864 9.91641 6.07266C9.90544 6.08859 9.88992 6.10084 9.87188 6.10781C9.8543 6.1159 9.83465 6.11836 9.81562 6.11484C9.79453 6.11016 9.77344 6.10078 9.75 6.08438C9.71484 6.06094 9.69375 6.03516 9.68672 6.00703C9.67908 5.97514 9.68412 5.94153 9.70078 5.91328L9.70312 5.91562ZM9.43125 5.7375L9.48984 5.76797C9.48259 5.78416 9.48094 5.8023 9.48516 5.81953C9.49115 5.83562 9.50282 5.84896 9.51797 5.85703C9.53672 5.86875 9.55078 5.87344 9.56484 5.87109C9.57891 5.87109 9.58828 5.86406 9.59531 5.85234C9.59887 5.84677 9.60051 5.84019 9.6 5.83359C9.6 5.82656 9.59531 5.81719 9.58828 5.81016C9.57627 5.79566 9.56377 5.78159 9.55078 5.76797C9.525 5.74219 9.50859 5.72109 9.50391 5.70234C9.50007 5.69028 9.49893 5.67753 9.50054 5.66498C9.50216 5.65243 9.50651 5.64038 9.51328 5.62969C9.52219 5.61522 9.53526 5.60379 9.55078 5.59688C9.56689 5.58945 9.58484 5.587 9.60234 5.58984C9.62402 5.59349 9.64474 5.60147 9.66328 5.61328C9.69844 5.63672 9.71953 5.66016 9.72656 5.68594C9.73083 5.69911 9.73221 5.71305 9.73059 5.72681C9.72897 5.74056 9.7244 5.7538 9.71719 5.76562L9.65859 5.73281C9.66563 5.71641 9.66797 5.70469 9.66328 5.69297C9.65859 5.68125 9.64922 5.66953 9.63281 5.66016C9.61984 5.65085 9.60424 5.64592 9.58828 5.64609C9.58443 5.64635 9.58071 5.64756 9.57744 5.6496C9.57417 5.65165 9.57145 5.65447 9.56953 5.65781C9.56484 5.66484 9.56484 5.67188 9.56719 5.68125C9.56953 5.69062 9.58359 5.70938 9.60703 5.73281C9.63047 5.75625 9.64687 5.775 9.65391 5.78906C9.6633 5.80376 9.66829 5.82084 9.66829 5.83828C9.66829 5.85572 9.6633 5.8728 9.65391 5.8875C9.64381 5.90385 9.62914 5.91689 9.61172 5.925C9.59414 5.93309 9.5745 5.93555 9.55547 5.93203C9.53135 5.92795 9.50826 5.9192 9.4875 5.90625C9.4572 5.8901 9.43386 5.86342 9.42188 5.83125C9.41282 5.79996 9.41618 5.76638 9.43125 5.7375ZM9.09844 5.64844L9.26953 5.36719L9.47578 5.49609L9.44766 5.54297L9.29766 5.44922L9.26016 5.5125L9.40078 5.59922L9.37031 5.64609L9.22969 5.55937L9.18281 5.63672L9.33984 5.73047L9.31172 5.77734L9.10078 5.64844H9.09844ZM8.61328 5.25L8.63906 5.20312L8.76562 5.26641L8.70703 5.38359C8.68828 5.38828 8.66484 5.39062 8.63672 5.38828C8.60971 5.3853 8.58349 5.37736 8.55938 5.36484C8.53101 5.35103 8.50677 5.33002 8.48906 5.30391C8.47294 5.27965 8.46476 5.25099 8.46563 5.22188C8.46681 5.19157 8.47483 5.16193 8.48906 5.13516C8.50315 5.10697 8.5241 5.08279 8.55 5.06484C8.57477 5.04771 8.60426 5.0387 8.63437 5.03906C8.65781 5.03906 8.68125 5.04609 8.70938 5.0625C8.74687 5.07891 8.77031 5.10234 8.78203 5.12813C8.79422 5.15372 8.79672 5.18286 8.78906 5.21016L8.72578 5.19141C8.72966 5.17571 8.728 5.15915 8.72109 5.14453C8.71406 5.13047 8.70234 5.12109 8.68359 5.11172C8.67267 5.10548 8.66054 5.10163 8.64802 5.10042C8.6355 5.09921 8.62286 5.10066 8.61094 5.10469C8.5875 5.11172 8.56641 5.13281 8.55 5.16562C8.53359 5.19844 8.52656 5.22891 8.53359 5.25469C8.53683 5.26691 8.54271 5.27829 8.5508 5.288C8.5589 5.29772 8.56903 5.30555 8.58047 5.31094C8.59219 5.31797 8.60625 5.32266 8.62031 5.32266C8.63429 5.32478 8.64852 5.32478 8.6625 5.32266L8.68125 5.28516L8.61328 5.25ZM6.49922 4.72734L6.54609 4.39922L6.64453 4.41562L6.67031 4.64531L6.76172 4.43437L6.86016 4.44844L6.81328 4.77188L6.75 4.7625L6.78984 4.50703L6.68672 4.75313L6.62344 4.74375L6.59766 4.47891L6.56016 4.73672L6.49922 4.72734ZM6.16875 4.6875L6.19922 4.35938L6.44062 4.38281L6.43594 4.43906L6.26016 4.42266L6.25312 4.49297L6.41719 4.50937L6.41016 4.56563L6.24609 4.54922L6.23906 4.63828L6.42188 4.65469L6.41719 4.71094L6.16875 4.6875Z" fill="#309E3A"/>
<path d="M5.07422 4.48359C5.07422 4.44844 5.08125 4.42266 5.09062 4.39922C5.09884 4.38255 5.10995 4.36747 5.12344 4.35469C5.13546 4.34256 5.14981 4.333 5.16562 4.32656C5.18906 4.31953 5.2125 4.31484 5.23594 4.31484C5.28516 4.31484 5.32266 4.33359 5.35312 4.36172C5.36763 4.37964 5.37841 4.40026 5.38485 4.4224C5.39129 4.44453 5.39325 4.46772 5.39062 4.49063C5.39062 4.54219 5.37422 4.58437 5.34375 4.61484C5.32809 4.62932 5.30957 4.64034 5.28938 4.6472C5.2692 4.65407 5.2478 4.65662 5.22656 4.65469C5.20561 4.6549 5.18484 4.65085 5.1655 4.6428C5.14616 4.63474 5.12866 4.62284 5.11406 4.60781C5.0849 4.57329 5.07057 4.52864 5.07422 4.48359Z" fill="#309E3A"/>
<path d="M5.14219 4.48359C5.14219 4.51875 5.14922 4.54688 5.16562 4.56797C5.18203 4.58672 5.20312 4.59844 5.23125 4.59844C5.24342 4.59929 5.25562 4.59742 5.26697 4.59296C5.27833 4.5885 5.28854 4.58156 5.29688 4.57266C5.31328 4.55391 5.32031 4.52578 5.32266 4.48594C5.32266 4.44844 5.31797 4.42031 5.29922 4.40156C5.29158 4.39212 5.28195 4.38448 5.271 4.37921C5.26006 4.37394 5.24808 4.37117 5.23594 4.37109C5.22361 4.3707 5.21134 4.37301 5.2 4.37787C5.18867 4.38273 5.17853 4.39002 5.17031 4.39922C5.15156 4.41797 5.14453 4.44609 5.14219 4.48359Z" fill="#F7FFFF"/>
<path d="M5.46094 4.65234L5.46562 4.32422H5.60625C5.64141 4.32422 5.66484 4.32891 5.68125 4.33594C5.69766 4.34062 5.70937 4.35234 5.71875 4.36641C5.72813 4.38047 5.73281 4.39922 5.73281 4.42031C5.733 4.44286 5.72462 4.46464 5.70938 4.48125C5.69205 4.49748 5.66975 4.50739 5.64609 4.50937L5.68125 4.5375C5.69062 4.54688 5.70234 4.56562 5.71641 4.59141L5.75625 4.65703H5.67656L5.62969 4.58203L5.59688 4.53516C5.59119 4.52871 5.58392 4.52386 5.57578 4.52109C5.56512 4.51798 5.55407 4.51641 5.54297 4.51641H5.52891V4.65234H5.46094Z" fill="#309E3A"/>
<path d="M5.53125 4.46484H5.57812C5.61094 4.46484 5.63203 4.46484 5.63906 4.46016C5.64609 4.46016 5.65312 4.45312 5.65781 4.44844C5.6625 4.44375 5.66484 4.43203 5.66484 4.425C5.66484 4.41094 5.6625 4.40156 5.65547 4.39688C5.65078 4.38984 5.64141 4.38516 5.63203 4.38281H5.58516L5.53125 4.38047V4.46484Z" fill="white"/>
<path d="M5.83594 4.34062L5.95781 4.34766C5.98359 4.34766 6.00469 4.35 6.01875 4.35469C6.03699 4.36131 6.05316 4.37262 6.06562 4.3875C6.07913 4.40389 6.08874 4.42312 6.09375 4.44375C6.10078 4.46484 6.10312 4.49062 6.10078 4.52109C6.10076 4.54502 6.0968 4.56877 6.08906 4.59141C6.07969 4.61484 6.06562 4.63359 6.04922 4.64766C6.03556 4.65891 6.01954 4.66692 6.00234 4.67109C5.98828 4.67578 5.96719 4.67578 5.94375 4.67578L5.81953 4.66875L5.83594 4.34062Z" fill="#309E3A"/>
<path d="M5.89922 4.39922L5.8875 4.61719H5.97656C5.98828 4.61719 5.99766 4.6125 6.00469 4.60547C6.01172 4.59844 6.01875 4.58906 6.02344 4.575C6.02812 4.56094 6.03281 4.53984 6.03281 4.51406L6.03047 4.45547C6.02712 4.44311 6.02067 4.43181 6.01172 4.42266C6.00394 4.41483 5.99424 4.40917 5.98359 4.40625C5.96587 4.4023 5.94783 4.39995 5.92969 4.39922H5.89922Z" fill="white"/>
<path d="M7.44375 4.92656L7.52109 4.60781L7.62422 4.63125L7.69922 4.65469C7.71562 4.66406 7.72969 4.67812 7.73672 4.69922C7.74609 4.71797 7.74609 4.73906 7.74141 4.76484C7.73672 4.78359 7.72969 4.8 7.71797 4.81172C7.70937 4.82201 7.69862 4.83029 7.68647 4.83596C7.67432 4.84163 7.66107 4.84455 7.64766 4.84453C7.63125 4.84453 7.60781 4.83984 7.57734 4.83281L7.5375 4.82109L7.50937 4.94297L7.44375 4.92656Z" fill="#309E3A"/>
<path d="M7.57031 4.67813L7.55156 4.76719L7.58672 4.77656C7.61016 4.78125 7.62891 4.78594 7.63828 4.78359C7.6474 4.78233 7.6559 4.77827 7.66262 4.77197C7.66933 4.76568 7.67393 4.75745 7.67578 4.74844C7.67578 4.73672 7.67578 4.72734 7.67109 4.71797C7.66595 4.70844 7.65767 4.70099 7.64766 4.69687L7.60312 4.68516L7.57266 4.67813H7.57031Z" fill="white"/>
<path d="M7.74844 5.01797L7.85859 4.70859L7.9875 4.75547C8.02266 4.76719 8.04375 4.77891 8.05781 4.78828C8.06953 4.8 8.07891 4.81172 8.08125 4.83047C8.08359 4.84922 8.08594 4.86562 8.08125 4.88437C8.07187 4.90781 8.05781 4.92422 8.03906 4.93594C8.02031 4.94531 7.99687 4.94766 7.96875 4.94297C7.97813 4.95469 7.9875 4.96641 7.99219 4.98047L8.01094 5.04375L8.025 5.11641L7.95234 5.09062L7.92891 5.00625C7.92465 4.98717 7.91917 4.96838 7.9125 4.95C7.90939 4.94271 7.90457 4.93628 7.89844 4.93125C7.89375 4.92422 7.88438 4.91953 7.86797 4.91484L7.85625 4.91016L7.80938 5.04141L7.74844 5.01797Z" fill="#309E3A"/>
<path d="M7.875 4.86094L7.91953 4.87734C7.95 4.88906 7.96875 4.89375 7.97812 4.89375C7.98516 4.89375 7.99219 4.89375 7.99922 4.88672C8.00625 4.88203 8.01094 4.875 8.01328 4.86563C8.01797 4.85625 8.01797 4.84687 8.01328 4.8375C8.00981 4.82842 8.00315 4.82091 7.99453 4.81641L7.90078 4.78359L7.87266 4.86094H7.875Z" fill="white"/>
<path d="M8.13281 5.00625C8.14087 4.97881 8.15443 4.95329 8.17266 4.93125C8.18451 4.91711 8.1988 4.9052 8.21484 4.89609C8.22937 4.88789 8.24524 4.88233 8.26172 4.87969C8.28516 4.87969 8.30859 4.87969 8.33438 4.88906C8.35533 4.89425 8.37494 4.90382 8.3919 4.91716C8.40888 4.93049 8.42282 4.94728 8.43281 4.96641C8.45156 5.00391 8.45156 5.04844 8.4375 5.1C8.4259 5.1443 8.39726 5.18221 8.35781 5.20547C8.32266 5.22656 8.28047 5.22891 8.23594 5.21484C8.21505 5.20952 8.1955 5.19989 8.17854 5.18657C8.16159 5.17326 8.14761 5.15654 8.1375 5.1375C8.12811 5.11701 8.12287 5.09487 8.12206 5.07234C8.12126 5.04982 8.12491 5.02736 8.13281 5.00625Z" fill="#309E3A"/>
<path d="M8.19844 5.025C8.18906 5.06016 8.18672 5.09062 8.19844 5.11406C8.21016 5.1375 8.22656 5.15156 8.25234 5.16094C8.27578 5.16797 8.29922 5.16563 8.32266 5.15156C8.34609 5.13984 8.36016 5.11406 8.37188 5.07656C8.38359 5.04141 8.38359 5.01328 8.37188 4.98984C8.36725 4.97872 8.36023 4.96876 8.35132 4.96066C8.34241 4.95256 8.33182 4.94652 8.32031 4.94297C8.30878 4.93899 8.29652 4.93756 8.28438 4.93877C8.27225 4.93998 8.26052 4.94381 8.25 4.95C8.22656 4.96406 8.21016 4.9875 8.19844 5.025Z" fill="white"/>
<path d="M8.77266 5.46328L8.92266 5.17266L9.04688 5.23594C9.07029 5.24717 9.09168 5.26222 9.11016 5.28047C9.12188 5.29219 9.12891 5.30625 9.12891 5.325C9.12891 5.34375 9.12891 5.36016 9.11953 5.37656C9.11052 5.39764 9.09373 5.41443 9.07266 5.42344C9.04922 5.42812 9.02578 5.42812 9 5.41875C9.00937 5.43281 9.01406 5.44687 9.01875 5.45859C9.02344 5.47266 9.02578 5.49375 9.02813 5.52422L9.03281 5.59922L8.9625 5.56406L8.95312 5.47734C8.95201 5.45768 8.94967 5.43811 8.94609 5.41875C8.9445 5.40998 8.94043 5.40185 8.93438 5.39531L8.90625 5.37891L8.89453 5.37187L8.83125 5.49375L8.77266 5.46328Z" fill="#309E3A"/>
<path d="M8.91797 5.325L8.9625 5.34844C8.99062 5.3625 9.00938 5.37187 9.01641 5.37187C9.02344 5.37187 9.03281 5.37187 9.03984 5.36719C9.04688 5.36484 9.05156 5.35781 9.05625 5.34844C9.06094 5.33906 9.06328 5.32969 9.06094 5.32031C9.05804 5.31098 9.05231 5.30279 9.04453 5.29688C9.03082 5.28846 9.01674 5.28064 9.00234 5.27344L8.95547 5.25L8.91797 5.325Z" fill="white"/>
<path d="M9.98672 6.06328C10.0019 6.03918 10.0218 6.01844 10.0453 6.00234C10.0611 5.99225 10.0786 5.9851 10.0969 5.98125C10.1139 5.97778 10.1314 5.97778 10.1484 5.98125C10.1719 5.98594 10.193 5.99531 10.2141 6.00937C10.2323 6.02074 10.248 6.03578 10.2601 6.05353C10.2722 6.07129 10.2805 6.09137 10.2844 6.1125C10.2914 6.15234 10.2797 6.19687 10.2516 6.24141C10.228 6.28014 10.1901 6.30795 10.1461 6.31875C10.1251 6.32328 10.1034 6.32333 10.0824 6.31889C10.0614 6.31444 10.0416 6.30561 10.0242 6.29297C10.006 6.28161 9.99031 6.26657 9.9782 6.24881C9.96609 6.23106 9.95782 6.21097 9.95391 6.18984C9.94688 6.14766 9.95859 6.10547 9.98672 6.06328Z" fill="#309E3A"/>
<path d="M10.0453 6.10078C10.0219 6.13125 10.0148 6.15937 10.0195 6.18516C10.0213 6.19703 10.0255 6.20839 10.032 6.2185C10.0384 6.2286 10.047 6.23721 10.057 6.24375C10.0805 6.26016 10.1039 6.26484 10.1273 6.25781C10.1508 6.25078 10.1742 6.23438 10.1953 6.20156C10.2164 6.16875 10.2258 6.14062 10.2211 6.11719C10.2188 6.09375 10.2047 6.07266 10.1836 6.05625C10.1625 6.03984 10.1367 6.0375 10.1133 6.04453C10.0898 6.04922 10.0664 6.06797 10.043 6.10078H10.0453Z" fill="white"/>
<path d="M7.07344 4.79297L7.12734 4.56328L7.29609 4.60312L7.28906 4.64062L7.16484 4.6125L7.15313 4.66406L7.26797 4.68984L7.25859 4.72969L7.14375 4.70156L7.12969 4.76484L7.25859 4.79531L7.24922 4.83281L7.07344 4.79297Z" fill="#309E3A"/>
</svg>
