<svg width="362" height="130" viewBox="0 0 362 130" fill="none" xmlns="http://www.w3.org/2000/svg">
<path d="M61.5325 109.429L61.4205 109.367L61.6284 109.733V109.6L61.5325 109.429Z" fill="#B4D8E1"/>
<path d="M48.3386 85.9422L48.229 85.8828L48.4209 86.2232V86.0907L48.3386 85.9422Z" fill="#B4D8E1"/>
<path d="M35.145 62.4555L35.0399 62.3984L35.2067 62.6954V62.5629L35.145 62.4555Z" fill="#B4D8E1"/>
<path d="M29.7633 59.481L27.977 58.4919C25.6197 57.1899 23.4086 57.0917 21.7525 58.2086C20.0964 59.3256 19.1667 61.5185 19.1645 64.3921C19.1645 67.6334 20.1992 71.1534 21.8804 74.2805C21.8231 74.3086 21.7675 74.3399 21.7137 74.3742C20.0439 75.4797 19.1233 77.6749 19.1188 80.5599C19.1188 87.3212 23.605 95.3091 29.1351 98.3769L61.6215 116.336V116.203L56.1439 106.438L29.1443 91.5196C26.7024 90.1719 24.7174 86.6382 24.7197 83.655C24.7197 82.6088 25.0555 81.8116 25.6654 81.405C26.2753 80.9984 27.0748 81.0373 27.9268 81.5101L29.1762 82.1954L48.4118 92.8308V92.6754L42.9525 82.9583L29.1854 75.3472C26.7435 73.9973 24.7608 70.4727 24.7654 67.4849C24.7654 66.441 25.0966 65.6392 25.7088 65.2349C26.321 64.8306 27.1113 64.8626 27.9679 65.3354L35.1975 69.3329V69.1547L29.7633 59.4764" fill="#B4D8E1"/>
<path d="M55.6847 57.6267C53.0282 56.1602 50.616 56.1031 48.8206 57.1698C48.7704 57.0808 48.727 56.9871 48.6744 56.8957V56.882C48.2684 56.1657 47.8183 55.4753 47.3267 54.8148C46.9681 54.326 46.6003 53.8646 46.2166 53.4306C45.1497 52.1882 43.878 51.1375 42.4567 50.324C41.7789 49.9371 41.0583 49.6305 40.3096 49.4103C40.2008 49.3755 40.0902 49.3466 39.9783 49.3235C39.7753 49.2718 39.5693 49.2321 39.3616 49.2047C39.2585 49.1819 39.1539 49.1666 39.0487 49.159C38.9322 49.1453 38.8202 49.1339 38.6992 49.1316C38.5781 49.1293 38.4091 49.1179 38.2697 49.1316C37.3243 49.1246 36.395 49.3774 35.5835 49.8626C33.9206 50.8562 32.7807 52.8321 32.4929 55.5732C32.4701 55.7445 32.4564 55.9272 32.4472 56.1077C32.4358 56.2059 32.4335 56.3087 32.4267 56.4069C32.4267 56.6079 32.413 56.8158 32.413 57.0259V57.5947L35.154 62.4556L35.2157 62.5629L37.9568 67.4283L38.0208 67.4626V60.1234C38.0211 59.775 38.0509 59.4273 38.1098 59.084C38.1561 58.8025 38.2326 58.5268 38.3383 58.2617C38.4684 57.9523 38.6456 57.6649 38.8636 57.4097C38.9116 57.3503 38.971 57.3 39.0258 57.2429C39.1146 57.1591 39.2101 57.0827 39.3113 57.0145C40.1131 56.4823 41.221 56.4823 42.4453 57.1584C42.7821 57.3479 43.0943 57.5781 43.375 57.8437C43.5813 58.0298 43.7722 58.2323 43.9461 58.449C44.2307 58.7923 44.4824 59.1617 44.6976 59.5523C45.2811 60.5502 45.6032 61.6792 45.6341 62.8347L45.7163 62.8827C45.663 63.3637 45.6348 63.847 45.6318 64.3309L45.6113 81.104L48.3272 85.9306L48.4094 86.0791L51.13 90.9057L51.2168 90.9536L51.2442 67.4375C51.243 67.2125 51.2537 66.9875 51.2762 66.7636C51.3036 66.5558 51.3378 66.3547 51.3812 66.1674C51.4323 65.9489 51.5034 65.7356 51.5937 65.5301C51.6739 65.3409 51.7718 65.1597 51.886 64.9888C51.9572 64.8853 52.0335 64.7855 52.1145 64.6895C52.2414 64.5561 52.3823 64.4366 52.5348 64.3332C53.3411 63.801 54.4421 63.7987 55.6642 64.4748C55.8844 64.5992 56.0951 64.7397 56.2946 64.8951C56.5055 65.0667 56.7046 65.2521 56.8908 65.4502C57.1908 65.7682 57.46 66.1139 57.6948 66.4827C57.7428 66.5603 57.7954 66.6448 57.8479 66.7385L57.9256 66.8641C58.0778 67.1258 58.2121 67.3975 58.3276 67.6773C58.4416 67.9507 58.5392 68.2306 58.62 68.5156C58.6969 68.7882 58.7579 69.0651 58.8027 69.3448C58.8423 69.611 58.8622 69.8797 58.8621 70.1489L58.9443 70.1945C58.8906 70.6762 58.8632 71.1604 58.8621 71.645L58.8233 104.616L61.5209 109.413L61.6169 109.584L64.3054 114.381L64.4173 114.442L64.463 73.2486C64.463 70.4664 63.611 67.3689 62.0372 64.4862C61.9869 64.3949 61.9435 64.3035 61.8887 64.2099C61.6329 63.753 61.3588 63.2962 61.0732 62.8804C60.7877 62.4647 60.4953 62.0353 60.1869 61.6424C60.0613 61.4802 59.9403 61.3317 59.8146 61.1855C59.3274 60.5919 58.8001 60.0325 58.2362 59.5112C57.4593 58.786 56.599 58.1557 55.6733 57.6335" fill="#B4D8E1"/>
<path d="M101.739 35.625L101.625 35.6844L102.043 35.6867L101.938 35.6273L101.739 35.625Z" fill="#66B1C1"/>
<path d="M74.8564 35.3047L74.7422 35.3618L75.1328 35.3664L75.0232 35.307L74.8564 35.3047Z" fill="#66B1C1"/>
<path d="M47.9733 34.9922L47.8636 35.047L48.204 35.0516L48.0966 34.9922H47.9733Z" fill="#66B1C1"/>
<path d="M42.3951 37.8359L40.5426 38.7793C38.1008 40.0242 36.7234 41.6963 36.6594 43.4871C36.5955 45.278 37.8472 46.9843 40.1886 48.284C42.8314 49.7436 46.3103 50.5203 49.8463 50.6185C49.8362 50.6752 49.8294 50.7324 49.8258 50.7898C49.7504 52.5852 50.9998 54.287 53.3503 55.5867C58.8622 58.6339 68.0105 58.7344 73.7417 55.8151L107.416 38.6583L107.308 38.5989L96.1523 38.471L68.1681 52.7269C65.6372 54.0152 61.5941 53.9695 59.1614 52.6241C58.3071 52.1535 57.8548 51.5345 57.88 50.8812C57.9051 50.2279 58.4053 49.6203 59.2893 49.168L60.5845 48.5102L80.5236 38.3499L80.3979 38.2791L69.2737 38.1512L55.0018 45.4242C52.4732 46.7125 48.4347 46.6668 45.9997 45.3214C45.1499 44.8508 44.6908 44.2318 44.7182 43.5762C44.7456 42.9206 45.2367 42.3176 46.123 41.8653L53.6176 38.0484L53.4714 37.9661L42.3951 37.8359Z" fill="#66B1C1"/>
<path d="M56.0618 16.8698C53.3093 18.2701 51.8519 20.1203 51.6669 22.0002H51.3585H51.3403C50.5106 21.9872 49.6809 22.0208 48.855 22.1007C48.2497 22.1601 47.6558 22.2378 47.0779 22.3291C45.433 22.601 43.8374 23.1144 42.3427 23.8527C41.6358 24.2032 40.9675 24.6266 40.3485 25.1159C40.2572 25.1867 40.1612 25.2598 40.0813 25.3443C39.9216 25.4786 39.7691 25.6211 39.6244 25.7715C39.5429 25.842 39.4665 25.9183 39.396 25.9999C39.3161 26.0844 39.2384 26.1689 39.1676 26.2603C39.0968 26.3517 38.9894 26.4887 38.9095 26.587C38.3763 27.2826 38.048 28.1132 37.9615 28.9854C37.797 30.726 38.7427 32.4985 40.8168 33.9605C40.9424 34.0541 41.084 34.1455 41.2257 34.2368L41.4541 34.3853C41.6117 34.4835 41.7807 34.5795 41.9521 34.6754L42.4089 34.9313L47.9756 34.9929H48.0989L53.6679 35.0569L53.7364 35.0226L47.7517 31.7151C47.4717 31.5594 47.2058 31.3798 46.9568 31.1783C46.7587 31.0141 46.5808 30.827 46.4269 30.6209C46.2506 30.3831 46.1191 30.1153 46.0386 29.8306C46.0211 29.7644 46.0074 29.6973 45.9974 29.6296C45.9826 29.5229 45.978 29.415 45.9837 29.3075C46.018 28.444 46.669 27.5852 47.9345 26.9387C48.2866 26.7599 48.6573 26.6204 49.04 26.523C49.3116 26.4479 49.5878 26.3907 49.8669 26.3517C50.3114 26.2852 50.7607 26.2561 51.2101 26.2649C52.33 26.2517 53.4366 26.5095 54.4354 27.0164L54.5245 26.9707C54.8872 27.2322 55.2647 27.4724 55.6552 27.6902L69.3263 35.2465L74.8542 35.3104H75.0209L80.5396 35.3721L80.631 35.3264L61.4617 24.7299C61.2788 24.6306 61.1019 24.5208 60.9317 24.4009C60.7841 24.2919 60.6423 24.1753 60.5069 24.0515C60.3591 23.9132 60.2259 23.7601 60.1094 23.5946C60.0043 23.4462 59.914 23.2879 59.8399 23.1218C59.7991 23.0174 59.7648 22.9106 59.7371 22.802C59.7028 22.6422 59.6874 22.4789 59.6914 22.3154C59.7302 21.4497 60.3767 20.5931 61.6399 19.949C61.8702 19.8338 62.1074 19.7331 62.3503 19.6475C62.6136 19.56 62.8821 19.4891 63.1543 19.435C63.5868 19.3445 64.0262 19.2903 64.4677 19.2728C64.5591 19.2728 64.6596 19.2728 64.7647 19.2728H64.9132C65.2132 19.2714 65.513 19.2889 65.8109 19.3254C66.1078 19.3619 66.3934 19.4122 66.6675 19.4739C66.9328 19.535 67.1944 19.6112 67.451 19.7023C67.6869 19.7902 67.9159 19.8956 68.1362 20.0175L68.2207 19.9741C68.5875 20.2347 68.9688 20.4742 69.3629 20.6913L96.2346 35.5389L101.73 35.6028H101.929L107.411 35.6691L107.526 35.6097L73.9473 17.048C71.6814 15.794 68.6525 15.0676 65.3814 14.9922C65.2741 14.9922 65.1759 14.9922 65.0685 14.9922C64.5431 14.9922 64.0177 14.9922 63.5061 15.0287C62.9944 15.0653 62.4759 15.0973 61.9756 15.1589C61.7701 15.1841 61.5782 15.2115 61.3817 15.2412C60.6116 15.3543 59.8489 15.513 59.0975 15.7163C58.0503 15.9912 57.0345 16.3739 56.0663 16.8584" fill="#66B1C1"/>
<path d="M109.181 88.1172L109.067 88.1766L109.282 88.3159V88.1857L109.181 88.1172Z" fill="#007E9A"/>
<path d="M95.5127 78.9766L95.4008 79.0337L95.5995 79.1661V79.0337L95.5127 78.9766Z" fill="#007E9A"/>
<path d="M81.8461 69.8359L81.7365 69.8908L81.9078 70.0095V69.8771L81.8461 69.8359Z" fill="#007E9A"/>
<path d="M76.2703 72.6732L74.4177 73.6166C71.9782 74.8615 69.6871 77.1457 67.9716 80.0421C66.2562 82.9385 65.2922 86.125 65.29 88.9849C65.29 92.2148 66.3613 94.5973 68.1041 95.8947C68.047 95.9861 67.9853 96.0729 67.9328 96.1665C66.2014 99.0675 65.2488 102.243 65.2443 105.116C65.2443 111.852 69.8927 114.954 75.6215 112.035L109.275 94.8874V94.7572L103.601 90.9653L75.6284 105.217C73.102 106.505 71.0439 105.132 71.0462 102.16C71.0804 101.007 71.4175 99.8827 72.0239 98.9008C72.5758 97.9207 73.3876 97.1121 74.3698 96.564L75.6626 95.9061L95.5903 85.7504V85.5974L89.9345 81.8147L75.6718 89.0786C73.1431 90.3669 71.0896 88.9963 71.1033 86.02C71.1366 84.8678 71.4739 83.7448 72.081 82.7649C72.63 81.7849 73.4406 80.9767 74.4223 80.4305L81.9123 76.6135V76.4353L76.2817 72.6641" fill="#007E9A"/>
<path d="M103.121 42.8903C100.38 44.2928 97.8677 46.8374 96.0106 49.8435C95.9604 49.807 95.9147 49.7635 95.8599 49.727C95.4372 49.4384 94.9683 49.2244 94.4733 49.0943C94.1003 48.9927 93.7174 48.9322 93.3312 48.9138C92.1274 48.8544 90.8072 49.1765 89.4366 49.8755C88.6515 50.2776 87.9058 50.7525 87.2095 51.294C87.0953 51.3785 86.9811 51.4676 86.8668 51.5635C86.6384 51.7371 86.4374 51.9199 86.2273 52.1095C86.1176 52.2008 86.0125 52.299 85.9052 52.3996C85.7978 52.5001 85.6631 52.628 85.542 52.7513C85.4209 52.8747 85.2428 53.0506 85.0988 53.2082C84.0464 54.3136 83.1139 55.5272 82.3167 56.8287C80.5921 59.6109 79.4134 62.8042 79.1187 65.8514C79.0936 66.0456 79.0799 66.242 79.0708 66.4316C79.0593 66.5412 79.0571 66.644 79.0502 66.7514C79.0388 66.9615 79.0365 67.174 79.0365 67.3818V67.9483L81.8689 69.8397L81.9306 69.8808L84.7654 71.7721L84.8316 71.7379V64.4283C84.8341 64.0504 84.8646 63.6733 84.923 63.2999C84.9818 62.9346 85.0649 62.5737 85.1719 62.2195C85.3204 61.7377 85.5021 61.2668 85.7156 60.8101C85.7658 60.6982 85.8275 60.5817 85.8846 60.4675C85.9737 60.2916 86.0788 60.1066 86.1793 59.9375C87.0108 58.5419 88.1574 57.3495 89.4252 56.703C89.7273 56.5432 90.0538 56.4344 90.3914 56.381C90.5866 56.3491 90.7856 56.3491 90.9807 56.381C91.2605 56.4083 91.5286 56.5066 91.7597 56.6665C92.3856 57.0777 92.7305 57.8863 92.7282 58.9256L92.8173 58.8799C92.7617 59.3898 92.732 59.9021 92.7282 60.4149L92.7076 77.1218L95.5241 78.9766L95.6109 79.0337L98.4159 80.9091L98.5073 80.8611L98.5347 57.4363C98.5338 57.2006 98.5452 56.965 98.569 56.7305C98.5964 56.502 98.6329 56.2553 98.6763 56.0246C98.7376 55.7331 98.8138 55.4449 98.9048 55.1612C98.9938 54.8734 99.0966 54.5856 99.2086 54.3092C99.2862 54.1219 99.3707 53.9368 99.4575 53.7518C99.5923 53.4777 99.7362 53.2059 99.8915 52.9455C100.728 51.5475 101.867 50.3574 103.135 49.7133C103.344 49.6072 103.562 49.5193 103.786 49.4506C103.988 49.3962 104.196 49.3663 104.405 49.3615C104.692 49.3499 104.977 49.4046 105.239 49.5214C105.289 49.5458 105.342 49.5755 105.397 49.6105L105.476 49.6539C105.637 49.7533 105.778 49.881 105.892 50.0308C106.016 50.1891 106.119 50.3626 106.198 50.547C106.282 50.7503 106.345 50.9615 106.386 51.1775C106.429 51.4202 106.45 51.6665 106.447 51.913L106.532 51.8696C106.482 52.3858 106.447 52.8975 106.447 53.4023L106.408 86.2427L109.202 88.1135L109.303 88.1821L112.089 90.0483L112.204 89.9889L112.249 48.9549C112.249 46.1842 111.365 44.0278 109.737 42.8537C109.684 42.8172 109.641 42.7738 109.584 42.7395C109.319 42.5605 109.035 42.4125 108.736 42.2987C108.443 42.1724 108.136 42.0782 107.822 42.0177C107.692 41.9949 107.567 41.9743 107.436 41.9629C106.891 41.8979 106.34 41.9102 105.799 41.9994C104.872 42.1545 103.976 42.456 103.144 42.8926" fill="#007E9A"/>
<path d="M302.088 96.1476H294.755C290.811 96.1435 287.029 94.5865 284.24 91.8184C281.45 89.0502 279.882 85.2969 279.877 81.3821V33.8516H287.636V81.3821C287.636 83.2584 288.387 85.0577 289.724 86.3844C291.06 87.7111 292.874 88.4565 294.764 88.4565H302.097L302.088 96.1476Z" fill="#B4D8E1"/>
<path d="M304.83 97.2519C303.84 97.2524 302.871 96.9613 302.048 96.4154C301.224 95.8696 300.582 95.0936 300.202 94.1856C299.823 93.2775 299.724 92.2782 299.917 91.314C300.109 90.3499 300.586 89.4641 301.286 88.7689C301.987 88.0736 302.879 87.6001 303.85 87.4082C304.822 87.2162 305.829 87.3145 306.744 87.6906C307.659 88.0667 308.441 88.7036 308.991 89.521C309.542 90.3383 309.836 91.2992 309.836 92.2822C309.834 93.5995 309.307 94.8626 308.368 95.7943C307.43 96.7259 306.158 97.2502 304.83 97.2519Z" fill="#B4D8E1"/>
<path d="M304.83 88.4161C305.6 88.4161 306.353 88.6428 306.994 89.0675C307.634 89.4922 308.133 90.0959 308.428 90.8021C308.722 91.5083 308.799 92.2854 308.649 93.0351C308.499 93.7848 308.128 94.4733 307.583 95.0137C307.038 95.554 306.344 95.9219 305.589 96.0708C304.833 96.2196 304.05 96.1428 303.339 95.85C302.627 95.5571 302.019 95.0615 301.592 94.4257C301.164 93.7899 300.936 93.0426 300.937 92.2782C300.937 91.7707 301.037 91.2682 301.233 90.7994C301.429 90.3305 301.715 89.9045 302.077 89.5457C302.439 89.1869 302.868 88.9022 303.34 88.708C303.813 88.5138 304.319 88.4138 304.83 88.4138V88.4161ZM304.83 86.2031C303.62 86.2027 302.436 86.5586 301.429 87.2259C300.422 87.8932 299.637 88.8418 299.173 89.9518C298.71 91.0619 298.588 92.2834 298.824 93.462C299.06 94.6406 299.643 95.7233 300.499 96.5731C301.355 97.423 302.446 98.0018 303.633 98.2364C304.82 98.471 306.051 98.3508 307.17 97.891C308.289 97.4313 309.245 96.6526 309.918 95.6536C310.59 94.6545 310.949 93.4798 310.949 92.2782C310.948 90.6679 310.302 89.124 309.155 87.9852C308.008 86.8463 306.453 86.2055 304.83 86.2031Z" fill="white"/>
<path d="M206.053 88.7305V88.4453H205.768L206.053 88.7305Z" fill="#007E9A"/>
<path d="M187.729 70.5187V70.2578H187.466L187.729 70.5187Z" fill="#007E9A"/>
<path d="M169.396 52.2946V52.0625H169.165L169.396 52.2946Z" fill="#007E9A"/>
<path d="M198.457 88.4488H161.05C159.423 88.4471 157.863 87.8048 156.712 86.663C155.562 85.5212 154.915 83.973 154.913 82.3583C154.918 81.1921 155.386 80.0751 156.217 79.2503C157.048 78.4255 158.173 77.9597 159.348 77.9545H187.729V77.7821L180.155 70.2545H161.081C159.455 70.251 157.897 69.608 156.749 68.4663C155.6 67.3246 154.954 65.7774 154.953 64.164C154.954 62.9968 155.421 61.8776 156.253 61.0523C157.084 60.227 158.212 59.763 159.388 59.7625H169.412V59.5613L161.858 52.0625H159.381C156.148 52.0643 153.047 53.3397 150.761 55.6088C148.474 57.8778 147.188 60.9548 147.186 64.164C147.19 67.67 148.545 71.0417 150.973 73.5883C150.897 73.6591 150.817 73.7232 150.75 73.7961C149.608 74.915 148.702 76.2484 148.085 77.7185C147.468 79.1885 147.153 80.7658 147.157 82.3583C147.161 86.0145 148.626 89.5198 151.231 92.1051C153.836 94.6904 157.368 96.1447 161.052 96.1488H206.048V96.0006L198.457 88.4488Z" fill="#007E9A"/>
<path d="M243.023 37.4122C241.893 36.2864 240.548 35.3941 239.068 34.787C237.588 34.1798 236.002 33.8699 234.4 33.8751C230.863 33.8759 227.46 35.2207 224.891 37.6333C224.822 37.5603 224.757 37.4808 224.686 37.4122C223.556 36.2883 222.212 35.3972 220.734 34.7901C219.255 34.1831 217.67 33.8721 216.07 33.8751C212.533 33.8758 209.131 35.2207 206.563 37.6333C206.494 37.5603 206.431 37.4808 206.36 37.4122C205.229 36.2878 203.885 35.3965 202.406 34.7894C200.926 34.1824 199.34 33.8717 197.74 33.8751C194.203 33.8739 190.801 35.2191 188.235 37.6333C188.166 37.5603 188.105 37.483 188.034 37.4122C186.904 36.2866 185.56 35.3944 184.081 34.7872C182.601 34.1801 181.015 33.8701 179.414 33.8751C175.73 33.878 172.199 35.3309 169.594 37.9151C166.989 40.4992 165.523 44.0035 165.518 47.6589V48.2846L173.183 55.9049H173.277V47.6567C173.28 46.0429 173.927 44.4961 175.078 43.3556C176.228 42.2151 177.788 41.574 179.414 41.5728C179.996 41.5722 180.574 41.6857 181.112 41.9069C181.651 42.128 182.14 42.4524 182.552 42.8615C182.964 43.2705 183.29 43.7563 183.513 44.2908C183.735 44.8253 183.85 45.3982 183.849 45.9766H183.962C183.89 46.5339 183.853 47.0949 183.849 47.6567V66.512L191.485 74.1036H191.609V47.6567C191.611 46.0437 192.258 44.4973 193.407 43.3567C194.556 42.2161 196.114 41.5746 197.74 41.5728C198.323 41.5708 198.901 41.6833 199.44 41.9039C199.979 42.1244 200.469 42.4487 200.882 42.8581C201.294 43.2674 201.621 43.7537 201.843 44.2889C202.065 44.8241 202.179 45.3977 202.177 45.9766H202.29C202.218 46.5337 202.18 47.0949 202.177 47.6567V84.7306L209.788 92.2957H209.935V47.6567C209.938 46.0429 210.586 44.4961 211.736 43.3556C212.887 42.2151 214.446 41.574 216.072 41.5728C216.655 41.5725 217.232 41.6862 217.77 41.9075C218.309 42.1287 218.798 42.4531 219.21 42.8621C219.622 43.2711 219.948 43.7567 220.171 44.2911C220.393 44.8256 220.508 45.3983 220.507 45.9766V96.1467H228.221V92.2957H228.268V47.6567C228.271 46.0433 228.918 44.4969 230.068 43.3564C231.218 42.216 232.777 41.5746 234.402 41.5728C234.985 41.5722 235.563 41.6857 236.101 41.9068C236.64 42.1279 237.129 42.4523 237.541 42.8613C237.954 43.2704 238.28 43.7561 238.503 44.2906C238.726 44.8252 238.84 45.3981 238.84 45.9766V92.2957H238.884V96.1467H246.598V45.9766C246.603 44.3853 246.289 42.809 245.675 41.3389C245.061 39.8688 244.16 38.5342 243.023 37.4122Z" fill="#007E9A"/>
<path d="M165.518 55.9084H165.875L165.518 55.5547V55.9084Z" fill="#007E9A"/>
<path d="M183.849 74.1062H184.174L183.849 73.7812V74.1062Z" fill="#007E9A"/>
<path d="M202.175 92.2984H202.475L202.175 92V92.2984Z" fill="#007E9A"/>
<path d="M179.353 41.5781C177.728 41.5799 176.169 42.2213 175.019 43.3617C173.869 44.5022 173.222 46.0486 173.219 47.662V55.7842L173.35 55.9147H173.442V47.662C173.445 46.0738 174.072 44.5495 175.191 43.4139C176.31 42.2783 177.832 41.6212 179.431 41.5825L179.353 41.5781Z" fill="#65B2C1"/>
<path d="M187.967 37.4122C188.041 37.4852 188.103 37.5648 188.174 37.6333L188.299 37.5228C188.266 37.4852 188.232 37.4476 188.197 37.4122C187.067 36.2865 185.723 35.3942 184.243 34.7871C182.764 34.1799 181.177 33.87 179.576 33.8751H179.467C182.659 33.8981 185.713 35.169 187.967 37.4122Z" fill="#65B2C1"/>
<path d="M243.186 37.4122C242.055 36.2866 240.712 35.3944 239.232 34.7872C237.752 34.1801 236.166 33.8701 234.565 33.8751C231.028 33.8755 227.625 35.2203 225.056 37.6333C224.984 37.5603 224.922 37.4808 224.849 37.4122C223.718 36.2881 222.375 35.3968 220.896 34.7898C219.418 34.1827 217.833 33.8719 216.232 33.8751C212.697 33.8759 209.295 35.2208 206.728 37.6333C206.656 37.5603 206.596 37.4808 206.523 37.4122C205.392 36.2876 204.048 35.3962 202.568 34.7891C201.089 34.1821 199.503 33.8714 197.902 33.8751H197.793C201.009 33.9019 204.083 35.1888 206.347 37.4555C208.611 39.7222 209.881 42.785 209.88 45.9766V92.2271L209.949 92.2957H210.098V47.6567C210.1 46.0431 210.747 44.4963 211.898 43.3558C213.048 42.2152 214.607 41.574 216.232 41.5728C216.815 41.5728 217.392 41.6867 217.93 41.9081C218.468 42.1295 218.957 42.4539 219.368 42.8629C219.78 43.2719 220.107 43.7574 220.329 44.2917C220.552 44.8259 220.666 45.3985 220.665 45.9766V96.1467H228.379V92.2957H228.424V47.6567C228.427 46.0429 229.074 44.4961 230.225 43.3556C231.375 42.2151 232.935 41.574 234.561 41.5728C235.143 41.5725 235.72 41.6862 236.259 41.9075C236.797 42.1287 237.286 42.4531 237.698 42.8621C238.11 43.2711 238.437 43.7567 238.659 44.2911C238.882 44.8255 238.996 45.3983 238.996 45.9766V92.2957H239.042V96.1467H246.756V45.9766C246.761 44.3856 246.448 42.8096 245.835 41.3395C245.222 39.8694 244.322 38.5346 243.186 37.4122Z" fill="#65B2C1"/>
<path d="M197.684 41.5781C196.058 41.5793 194.499 42.2204 193.348 43.361C192.198 44.5015 191.55 46.0482 191.547 47.662V74.0094L191.647 74.1089H191.772V47.662C191.774 46.0738 192.401 44.5492 193.52 43.4134C194.638 42.2776 196.16 41.6206 197.76 41.5825L197.684 41.5781Z" fill="#65B2C1"/>
<path d="M326.845 33.7891V81.386C326.843 84.4112 325.906 87.3631 324.16 89.843C322.414 92.3229 319.943 94.2115 317.082 95.2538C315.447 95.8525 313.717 96.1572 311.974 96.1536H304.643V88.4514H311.976C313.867 88.4514 315.68 87.7061 317.017 86.3794C318.353 85.0527 319.104 83.2533 319.104 81.3771V65.325C318.597 65.5698 318.077 65.786 317.545 65.9728C318.548 64.8636 319.103 63.4262 319.104 61.936V33.7891H326.845Z" fill="#B4D8E1"/>
<path d="M272.845 37.3653C271.714 36.2399 270.369 35.348 268.889 34.7409C267.409 34.1338 265.822 33.8236 264.22 33.8282C260.813 33.8296 257.526 35.0789 254.989 37.3366L254.865 37.4493C254.252 38.0067 253.691 38.617 253.187 39.2732C253.103 39.3837 253.016 39.4943 252.933 39.6092C252.806 39.7883 252.679 39.9674 252.559 40.1508C252.439 40.3343 252.336 40.4935 252.243 40.6659C252.111 40.887 251.984 41.1081 251.864 41.3468C251.744 41.5856 251.624 41.8222 251.514 42.0675C251.45 42.2112 251.39 42.3571 251.332 42.5097C251.229 42.7573 251.138 43.0093 251.051 43.2658C251.011 43.3851 250.966 43.5045 250.929 43.6261C250.815 43.9975 250.706 44.3733 250.637 44.758C250.614 44.8553 250.599 44.957 250.581 45.0564C250.521 45.3704 250.472 45.6865 250.434 46.0071C250.421 46.1264 250.405 46.2436 250.396 46.363C250.356 46.7764 250.332 47.1942 250.332 47.6187V81.3366C250.333 84.3371 251.255 87.266 252.975 89.7337C254.695 92.2015 257.131 94.0911 259.959 95.1515C261.632 95.7812 263.407 96.1026 265.196 96.0999H272.547C273.056 96.1002 273.561 96.0008 274.031 95.8075C274.502 95.6142 274.93 95.3308 275.29 94.9733C275.651 94.6159 275.937 94.1915 276.132 93.7244C276.327 93.2573 276.427 92.7566 276.427 92.251V88.4021L263.385 88.1589C261.868 87.7589 260.527 86.8735 259.57 85.64C258.612 84.4065 258.091 82.8939 258.088 81.3366V75.9182H262.358C262.414 75.9182 262.467 75.9182 262.523 75.9182C262.579 75.9182 262.628 75.9182 262.679 75.9182H262.879C266.498 75.826 269.938 74.3359 272.467 71.7649C274.996 69.1939 276.415 65.745 276.42 62.152V45.9319C276.424 44.3404 276.11 42.764 275.496 41.2936C274.883 39.8233 273.982 38.4881 272.845 37.3653ZM268.655 62.1431C268.655 63.6827 268.066 65.1649 267.007 66.2898C265.948 67.4147 264.498 68.0985 262.951 68.2027V68.2492H258.088V49.1374V47.6209C258.09 46.0067 258.737 44.4593 259.888 43.3185C261.038 42.1777 262.598 41.537 264.225 41.537C264.807 41.5344 265.384 41.6465 265.922 41.8665C266.46 42.0866 266.95 42.4104 267.361 42.8192C267.554 43.0089 267.727 43.2178 267.878 43.4426C268.39 44.1752 268.663 45.0466 268.66 45.9385V56.4306L268.655 62.1431Z" fill="#65B2C1"/>
<path d="M276.957 96.821C279.599 96.821 281.74 94.6959 281.74 92.0746C281.74 89.4532 279.599 87.3281 276.957 87.3281C274.316 87.3281 272.175 89.4532 272.175 92.0746C272.175 94.6959 274.316 96.821 276.957 96.821Z" fill="#27AAE1"/>
<path d="M276.957 88.2139C277.728 88.2135 278.481 88.4398 279.121 88.8642C279.762 89.2887 280.261 89.8922 280.556 90.5984C280.851 91.3046 280.929 92.0818 280.778 92.8316C280.628 93.5814 280.257 94.2702 279.713 94.8107C279.168 95.3513 278.474 95.7194 277.719 95.8684C276.963 96.0175 276.18 95.9408 275.468 95.648C274.757 95.3552 274.149 94.8596 273.721 94.2238C273.293 93.5879 273.065 92.8405 273.066 92.076C273.066 91.0519 273.477 90.0699 274.206 89.3457C274.936 88.6216 275.925 88.2145 276.957 88.2139ZM276.957 86.4453C275.835 86.4453 274.737 86.7757 273.804 87.3948C272.87 88.0138 272.143 88.8937 271.713 89.9231C271.284 90.9525 271.172 92.0852 271.391 93.178C271.61 94.2707 272.151 95.2744 272.945 96.0621C273.739 96.8498 274.75 97.3861 275.851 97.6032C276.952 97.8203 278.094 97.7084 279.131 97.2817C280.168 96.8551 281.054 96.1327 281.678 95.2061C282.301 94.2795 282.633 93.1902 282.633 92.076C282.631 90.5828 282.033 89.1513 280.969 88.0957C279.904 87.04 278.462 86.4465 276.957 86.4453Z" fill="white"/>
<path d="M276.734 96.821C279.376 96.821 281.517 94.6959 281.517 92.0746C281.517 89.4532 279.376 87.3281 276.734 87.3281C274.093 87.3281 271.952 89.4532 271.952 92.0746C271.952 94.6959 274.093 96.821 276.734 96.821Z" fill="#27AAE1"/>
<path d="M276.734 88.2139C277.505 88.2135 278.258 88.4398 278.899 88.8642C279.539 89.2887 280.039 89.8922 280.334 90.5984C280.629 91.3046 280.706 92.0818 280.556 92.8316C280.406 93.5814 280.035 94.2702 279.49 94.8107C278.945 95.3513 278.251 95.7194 277.496 95.8684C276.74 96.0175 275.957 95.9408 275.246 95.648C274.534 95.3552 273.926 94.8596 273.498 94.2238C273.071 93.5879 272.843 92.8405 272.843 92.076C272.844 91.0519 273.254 90.0699 273.983 89.3457C274.713 88.6216 275.703 88.2145 276.734 88.2139ZM276.734 86.4453C275.612 86.4453 274.514 86.7757 273.581 87.3948C272.648 88.0138 271.92 88.8937 271.491 89.9231C271.061 90.9525 270.949 92.0852 271.168 93.178C271.387 94.2707 271.928 95.2744 272.722 96.0621C273.516 96.8498 274.527 97.3861 275.629 97.6032C276.73 97.8203 277.871 97.7084 278.908 97.2817C279.945 96.8551 280.831 96.1327 281.455 95.2061C282.078 94.2795 282.411 93.1902 282.41 92.076C282.408 90.5828 281.81 89.1513 280.746 88.0957C279.682 87.04 278.239 86.4465 276.734 86.4453Z" fill="white"/>
<path d="M276.512 96.821C279.153 96.821 281.294 94.6959 281.294 92.0746C281.294 89.4532 279.153 87.3281 276.512 87.3281C273.87 87.3281 271.729 89.4532 271.729 92.0746C271.729 94.6959 273.87 96.821 276.512 96.821Z" fill="#27AAE1"/>
<path d="M276.512 88.2139C277.282 88.2135 278.035 88.4398 278.676 88.8642C279.316 89.2887 279.816 89.8922 280.111 90.5984C280.406 91.3046 280.483 92.0818 280.333 92.8316C280.183 93.5814 279.812 94.2702 279.267 94.8107C278.723 95.3513 278.029 95.7194 277.273 95.8684C276.517 96.0175 275.734 95.9408 275.023 95.648C274.311 95.3552 273.703 94.8596 273.275 94.2238C272.848 93.5879 272.62 92.8405 272.62 92.076C272.621 91.0519 273.031 90.0699 273.761 89.3457C274.49 88.6216 275.48 88.2145 276.512 88.2139ZM276.512 86.4453C275.389 86.4453 274.292 86.7757 273.358 87.3948C272.425 88.0138 271.697 88.8937 271.268 89.9231C270.838 90.9525 270.726 92.0852 270.945 93.178C271.164 94.2707 271.705 95.2744 272.499 96.0621C273.293 96.8498 274.305 97.3861 275.406 97.6032C276.507 97.8203 277.648 97.7084 278.685 97.2817C279.722 96.8551 280.609 96.1327 281.232 95.2061C281.855 94.2795 282.188 93.1902 282.187 92.076C282.186 90.5828 281.587 89.1513 280.523 88.0957C279.459 87.04 278.016 86.4465 276.512 86.4453Z" fill="white"/>
<path d="M276.289 96.821C278.93 96.821 281.071 94.6959 281.071 92.0746C281.071 89.4532 278.93 87.3281 276.289 87.3281C273.648 87.3281 271.506 89.4532 271.506 92.0746C271.506 94.6959 273.648 96.821 276.289 96.821Z" fill="#27AAE1"/>
<path d="M276.289 88.2139C277.059 88.2135 277.812 88.4398 278.453 88.8642C279.094 89.2887 279.593 89.8922 279.888 90.5984C280.183 91.3046 280.26 92.0818 280.11 92.8316C279.96 93.5814 279.589 94.2702 279.044 94.8107C278.5 95.3513 277.806 95.7194 277.05 95.8684C276.295 96.0175 275.512 95.9408 274.8 95.648C274.088 95.3552 273.48 94.8596 273.053 94.2238C272.625 93.5879 272.397 92.8405 272.397 92.076C272.398 91.0519 272.808 90.0699 273.538 89.3457C274.268 88.6216 275.257 88.2145 276.289 88.2139ZM276.289 86.4453C275.166 86.4453 274.069 86.7757 273.135 87.3948C272.202 88.0138 271.475 88.8937 271.045 89.9231C270.615 90.9525 270.503 92.0852 270.722 93.178C270.942 94.2707 271.482 95.2744 272.276 96.0621C273.07 96.8498 274.082 97.3861 275.183 97.6032C276.284 97.8203 277.425 97.7084 278.462 97.2817C279.5 96.8551 280.386 96.1327 281.009 95.2061C281.633 94.2795 281.965 93.1902 281.965 92.076C281.963 90.5828 281.364 89.1513 280.3 88.0957C279.236 87.04 277.793 86.4465 276.289 86.4453Z" fill="white"/>
<path d="M276.066 96.821C278.708 96.821 280.849 94.6959 280.849 92.0746C280.849 89.4532 278.708 87.3281 276.066 87.3281C273.425 87.3281 271.284 89.4532 271.284 92.0746C271.284 94.6959 273.425 96.821 276.066 96.821Z" fill="#27AAE1"/>
<path d="M276.066 88.2139C276.836 88.2135 277.59 88.4398 278.23 88.8642C278.871 89.2887 279.37 89.8922 279.665 90.5984C279.96 91.3046 280.038 92.0818 279.887 92.8316C279.737 93.5814 279.366 94.2702 278.822 94.8107C278.277 95.3513 277.583 95.7194 276.827 95.8684C276.072 96.0175 275.289 95.9408 274.577 95.648C273.866 95.3552 273.258 94.8596 272.83 94.2238C272.402 93.5879 272.174 92.8405 272.175 92.076C272.175 91.0519 272.585 90.0699 273.315 89.3457C274.045 88.6216 275.034 88.2145 276.066 88.2139ZM276.066 86.4453C274.943 86.4453 273.846 86.7757 272.913 87.3948C271.979 88.0138 271.252 88.8937 270.822 89.9231C270.393 90.9525 270.28 92.0852 270.5 93.178C270.719 94.2707 271.26 95.2744 272.054 96.0621C272.848 96.8498 273.859 97.3861 274.96 97.6032C276.061 97.8203 277.203 97.7084 278.24 97.2817C279.277 96.8551 280.163 96.1327 280.786 95.2061C281.41 94.2795 281.742 93.1902 281.742 92.076C281.74 90.5828 281.141 89.1513 280.077 88.0957C279.013 87.04 277.571 86.4465 276.066 86.4453Z" fill="white"/>
<path d="M275.843 96.821C278.485 96.821 280.626 94.6959 280.626 92.0746C280.626 89.4532 278.485 87.3281 275.843 87.3281C273.202 87.3281 271.061 89.4532 271.061 92.0746C271.061 94.6959 273.202 96.821 275.843 96.821Z" fill="#27AAE1"/>
<path d="M275.843 88.2139C276.614 88.2135 277.367 88.4398 278.008 88.8642C278.648 89.2887 279.148 89.8922 279.443 90.5984C279.738 91.3046 279.815 92.0818 279.665 92.8316C279.515 93.5814 279.144 94.2702 278.599 94.8107C278.054 95.3513 277.36 95.7194 276.605 95.8684C275.849 96.0175 275.066 95.9408 274.355 95.648C273.643 95.3552 273.035 94.8596 272.607 94.2238C272.18 93.5879 271.952 92.8405 271.952 92.076C271.953 91.0519 272.363 90.0699 273.092 89.3457C273.822 88.6216 274.812 88.2145 275.843 88.2139ZM275.843 86.4453C274.721 86.4453 273.623 86.7757 272.69 87.3948C271.757 88.0138 271.029 88.8937 270.6 89.9231C270.17 90.9525 270.058 92.0852 270.277 93.178C270.496 94.2707 271.037 95.2744 271.831 96.0621C272.625 96.8498 273.636 97.3861 274.738 97.6032C275.839 97.8203 276.98 97.7084 278.017 97.2817C279.054 96.8551 279.94 96.1327 280.564 95.2061C281.187 94.2795 281.52 93.1902 281.519 92.076C281.517 90.5828 280.919 89.1513 279.855 88.0957C278.791 87.04 277.348 86.4465 275.843 86.4453Z" fill="white"/>
<path d="M275.621 96.821C278.262 96.821 280.403 94.6959 280.403 92.0746C280.403 89.4532 278.262 87.3281 275.621 87.3281C272.979 87.3281 270.838 89.4532 270.838 92.0746C270.838 94.6959 272.979 96.821 275.621 96.821Z" fill="#27AAE1"/>
<path d="M275.621 88.2139C276.391 88.2135 277.144 88.4398 277.785 88.8642C278.425 89.2887 278.925 89.8922 279.22 90.5984C279.515 91.3046 279.592 92.0818 279.442 92.8316C279.292 93.5814 278.921 94.2702 278.376 94.8107C277.832 95.3513 277.138 95.7194 276.382 95.8684C275.626 96.0175 274.843 95.9408 274.132 95.648C273.42 95.3552 272.812 94.8596 272.384 94.2238C271.957 93.5879 271.729 92.8405 271.729 92.076C271.73 91.0519 272.14 90.0699 272.87 89.3457C273.599 88.6216 274.589 88.2145 275.621 88.2139ZM275.621 86.4453C274.498 86.4453 273.401 86.7757 272.467 87.3948C271.534 88.0138 270.806 88.8937 270.377 89.9231C269.947 90.9525 269.835 92.0852 270.054 93.178C270.273 94.2707 270.814 95.2744 271.608 96.0621C272.402 96.8498 273.414 97.3861 274.515 97.6032C275.616 97.8203 276.757 97.7084 277.794 97.2817C278.831 96.8551 279.718 96.1327 280.341 95.2061C280.964 94.2795 281.297 93.1902 281.296 92.076C281.295 90.5828 280.696 89.1513 279.632 88.0957C278.568 87.04 277.125 86.4465 275.621 86.4453Z" fill="white"/>
<path d="M275.398 96.821C278.039 96.821 280.18 94.6959 280.18 92.0746C280.18 89.4532 278.039 87.3281 275.398 87.3281C272.757 87.3281 270.615 89.4532 270.615 92.0746C270.615 94.6959 272.757 96.821 275.398 96.821Z" fill="#27AAE1"/>
<path d="M275.398 88.2139C276.168 88.2135 276.921 88.4398 277.562 88.8642C278.203 89.2887 278.702 89.8922 278.997 90.5984C279.292 91.3046 279.369 92.0818 279.219 92.8316C279.069 93.5814 278.698 94.2702 278.153 94.8107C277.609 95.3513 276.915 95.7194 276.159 95.8684C275.404 96.0175 274.621 95.9408 273.909 95.648C273.197 95.3552 272.589 94.8596 272.162 94.2238C271.734 93.5879 271.506 92.8405 271.506 92.076C271.507 91.0519 271.917 90.0699 272.647 89.3457C273.377 88.6216 274.366 88.2145 275.398 88.2139ZM275.398 86.4453C274.275 86.4453 273.178 86.7757 272.244 87.3948C271.311 88.0138 270.584 88.8937 270.154 89.9231C269.724 90.9525 269.612 92.0852 269.831 93.178C270.051 94.2707 270.591 95.2744 271.385 96.0621C272.179 96.8498 273.191 97.3861 274.292 97.6032C275.393 97.8203 276.534 97.7084 277.571 97.2817C278.609 96.8551 279.495 96.1327 280.118 95.2061C280.742 94.2795 281.074 93.1902 281.074 92.076C281.072 90.5828 280.473 89.1513 279.409 88.0957C278.345 87.04 276.902 86.4465 275.398 86.4453Z" fill="white"/>
<path d="M275.175 96.821C277.817 96.821 279.958 94.6959 279.958 92.0746C279.958 89.4532 277.817 87.3281 275.175 87.3281C272.534 87.3281 270.393 89.4532 270.393 92.0746C270.393 94.6959 272.534 96.821 275.175 96.821Z" fill="#27AAE1"/>
<path d="M275.175 88.2139C275.945 88.2135 276.699 88.4398 277.339 88.8642C277.98 89.2887 278.479 89.8922 278.774 90.5984C279.069 91.3046 279.147 92.0818 278.996 92.8316C278.846 93.5814 278.475 94.2702 277.931 94.8107C277.386 95.3513 276.692 95.7194 275.936 95.8684C275.181 96.0175 274.398 95.9408 273.686 95.648C272.975 95.3552 272.367 94.8596 271.939 94.2238C271.511 93.5879 271.283 92.8405 271.284 92.076C271.284 91.0519 271.694 90.0699 272.424 89.3457C273.154 88.6216 274.143 88.2145 275.175 88.2139ZM275.175 86.4453C274.052 86.4453 272.955 86.7757 272.022 87.3948C271.088 88.0138 270.361 88.8937 269.931 89.9231C269.502 90.9525 269.389 92.0852 269.609 93.178C269.828 94.2707 270.369 95.2744 271.163 96.0621C271.957 96.8498 272.968 97.3861 274.069 97.6032C275.17 97.8203 276.312 97.7084 277.349 97.2817C278.386 96.8551 279.272 96.1327 279.895 95.2061C280.519 94.2795 280.851 93.1902 280.851 92.076C280.849 90.5828 280.251 89.1513 279.186 88.0957C278.122 87.04 276.68 86.4465 275.175 86.4453Z" fill="white"/>
<path d="M274.952 96.821C277.594 96.821 279.735 94.6959 279.735 92.0746C279.735 89.4532 277.594 87.3281 274.952 87.3281C272.311 87.3281 270.17 89.4532 270.17 92.0746C270.17 94.6959 272.311 96.821 274.952 96.821Z" fill="#27AAE1"/>
<path d="M274.952 88.2139C275.723 88.2135 276.476 88.4398 277.116 88.8642C277.757 89.2887 278.257 89.8922 278.551 90.5984C278.846 91.3046 278.924 92.0818 278.774 92.8316C278.623 93.5814 278.253 94.2702 277.708 94.8107C277.163 95.3513 276.469 95.7194 275.714 95.8684C274.958 96.0175 274.175 95.9408 273.463 95.648C272.752 95.3552 272.144 94.8596 271.716 94.2238C271.288 93.5879 271.06 92.8405 271.061 92.076C271.061 91.0519 271.472 90.0699 272.201 89.3457C272.931 88.6216 273.92 88.2145 274.952 88.2139ZM274.952 86.4453C273.83 86.4453 272.732 86.7757 271.799 87.3948C270.865 88.0138 270.138 88.8937 269.708 89.9231C269.279 90.9525 269.167 92.0852 269.386 93.178C269.605 94.2707 270.146 95.2744 270.94 96.0621C271.734 96.8498 272.745 97.3861 273.846 97.6032C274.948 97.8203 276.089 97.7084 277.126 97.2817C278.163 96.8551 279.049 96.1327 279.673 95.2061C280.296 94.2795 280.629 93.1902 280.628 92.076C280.626 90.5828 280.028 89.1513 278.964 88.0957C277.9 87.04 276.457 86.4465 274.952 86.4453Z" fill="white"/>
<path d="M274.73 96.821C277.371 96.821 279.512 94.6959 279.512 92.0746C279.512 89.4532 277.371 87.3281 274.73 87.3281C272.088 87.3281 269.947 89.4532 269.947 92.0746C269.947 94.6959 272.088 96.821 274.73 96.821Z" fill="#27AAE1"/>
<path d="M274.73 88.2139C275.5 88.2135 276.253 88.4398 276.894 88.8642C277.534 89.2887 278.034 89.8922 278.329 90.5984C278.624 91.3046 278.701 92.0818 278.551 92.8316C278.401 93.5814 278.03 94.2702 277.485 94.8107C276.941 95.3513 276.247 95.7194 275.491 95.8684C274.736 96.0175 273.952 95.9408 273.241 95.648C272.529 95.3552 271.921 94.8596 271.493 94.2238C271.066 93.5879 270.838 92.8405 270.838 92.076C270.839 91.0519 271.249 90.0699 271.979 89.3457C272.708 88.6216 273.698 88.2145 274.73 88.2139ZM274.73 86.4453C273.607 86.4453 272.51 86.7757 271.576 87.3948C270.643 88.0138 269.915 88.8937 269.486 89.9231C269.056 90.9525 268.944 92.0852 269.163 93.178C269.382 94.2707 269.923 95.2744 270.717 96.0621C271.511 96.8498 272.523 97.3861 273.624 97.6032C274.725 97.8203 275.866 97.7084 276.903 97.2817C277.94 96.8551 278.827 96.1327 279.45 95.2061C280.073 94.2795 280.406 93.1902 280.405 92.076C280.404 90.5828 279.805 89.1513 278.741 88.0957C277.677 87.04 276.234 86.4465 274.73 86.4453Z" fill="white"/>
<path d="M274.507 96.821C277.148 96.821 279.289 94.6959 279.289 92.0746C279.289 89.4532 277.148 87.3281 274.507 87.3281C271.866 87.3281 269.724 89.4532 269.724 92.0746C269.724 94.6959 271.866 96.821 274.507 96.821Z" fill="#27AAE1"/>
<path d="M274.507 88.2139C275.277 88.2135 276.03 88.4398 276.671 88.8642C277.312 89.2887 277.811 89.8922 278.106 90.5984C278.401 91.3046 278.478 92.0818 278.328 92.8316C278.178 93.5814 277.807 94.2702 277.262 94.8107C276.718 95.3513 276.024 95.7194 275.268 95.8684C274.513 96.0175 273.73 95.9408 273.018 95.648C272.306 95.3552 271.698 94.8596 271.271 94.2238C270.843 93.5879 270.615 92.8405 270.615 92.076C270.616 91.0519 271.026 90.0699 271.756 89.3457C272.486 88.6216 273.475 88.2145 274.507 88.2139ZM274.507 86.4453C273.384 86.4453 272.287 86.7757 271.353 87.3948C270.42 88.0138 269.693 88.8937 269.263 89.9231C268.833 90.9525 268.721 92.0852 268.94 93.178C269.16 94.2707 269.7 95.2744 270.494 96.0621C271.288 96.8498 272.3 97.3861 273.401 97.6032C274.502 97.8203 275.643 97.7084 276.68 97.2817C277.718 96.8551 278.604 96.1327 279.227 95.2061C279.851 94.2795 280.183 93.1902 280.183 92.076C280.181 90.5828 279.582 89.1513 278.518 88.0957C277.454 87.04 276.011 86.4465 274.507 86.4453Z" fill="white"/>
<path d="M274.507 95.9352C276.656 95.9352 278.398 94.2061 278.398 92.0731C278.398 89.9401 276.656 88.2109 274.507 88.2109C272.358 88.2109 270.615 89.9401 270.615 92.0731C270.615 94.2061 272.358 95.9352 274.507 95.9352Z" fill="#B4D8E1"/>
<path d="M319.086 42.7469V61.936C319.082 63.5494 318.434 65.0955 317.284 66.2358C316.134 67.3761 314.575 68.0176 312.95 68.0199C312.367 68.0219 311.79 67.9094 311.252 67.689C310.714 67.4685 310.225 67.1445 309.813 66.7355C309.659 66.5796 309.516 66.4126 309.386 66.2359C308.818 65.4788 308.512 64.5598 308.515 63.6162V33.7891H300.754V63.6162C300.754 65.2056 301.069 66.7796 301.682 68.248C302.295 69.7165 303.193 71.0508 304.326 72.1748C306.613 74.4447 309.715 75.7199 312.95 75.7199C315.08 75.7176 317.18 75.2257 319.086 74.2829V90.346C319.088 92.1788 318.369 93.9398 317.082 95.2538C319.943 94.2115 322.414 92.3229 324.16 89.843C325.906 87.3631 326.843 84.4112 326.845 81.386V42.7469H319.086Z" fill="#B4D8E1"/>
</svg>
