<svg width="140" height="33" viewBox="0 0 140 33" fill="none" xmlns="http://www.w3.org/2000/svg">
<path d="M15.883 27.3592L15.855 27.3438L15.9069 27.4351V27.402L15.883 27.3592Z" fill="#637381"/>
<path d="M12.5845 21.4875L12.5571 21.4727L12.6051 21.5577V21.5246L12.5845 21.4875Z" fill="#637381"/>
<path d="M9.28603 15.6197L9.25977 15.6055L9.30145 15.6797V15.6466L9.28603 15.6197Z" fill="#637381"/>
<path d="M7.94067 14.8741L7.4941 14.6269C6.90477 14.3014 6.35199 14.2768 5.93797 14.5561C5.52395 14.8353 5.29153 15.3835 5.29096 16.1019C5.29096 16.9123 5.54965 17.7923 5.96995 18.574C5.95563 18.5811 5.94171 18.5889 5.92826 18.5974C5.51082 18.8738 5.28068 19.4226 5.27954 20.1439C5.27954 21.8342 6.4011 23.8312 7.78363 24.5981L15.9052 29.0878V29.0547L14.5358 26.6134L7.78591 22.8838C7.17545 22.5469 6.6792 21.6635 6.67978 20.9177C6.67978 20.6561 6.76372 20.4568 6.91619 20.3552C7.06867 20.2535 7.26854 20.2632 7.48154 20.3814L7.79391 20.5527L12.6028 23.2116V23.1728L11.238 20.7435L7.79619 18.8407C7.18573 18.5032 6.69005 17.6221 6.6912 16.8751C6.6912 16.6142 6.774 16.4137 6.92704 16.3126C7.08009 16.2116 7.27767 16.2196 7.49182 16.3378L9.29922 17.3371V17.2926L7.94067 14.873" fill="#637381"/>
<path d="M14.421 14.4106C13.7568 14.044 13.1538 14.0297 12.7049 14.2964C12.6924 14.2741 12.6815 14.2507 12.6684 14.2278V14.2244C12.5669 14.0453 12.4544 13.8727 12.3315 13.7076C12.2418 13.5854 12.1499 13.47 12.0539 13.3615C11.7872 13.051 11.4693 12.7883 11.114 12.5849C10.9445 12.4882 10.7644 12.4115 10.5772 12.3565C10.55 12.3478 10.5223 12.3405 10.4944 12.3348C10.4436 12.3219 10.3921 12.3119 10.3402 12.3051C10.3144 12.2994 10.2883 12.2956 10.262 12.2937C10.2328 12.2902 10.2048 12.2874 10.1746 12.2868C10.1443 12.2862 10.1021 12.2834 10.0672 12.2868C9.83085 12.285 9.59854 12.3483 9.39566 12.4696C8.97993 12.718 8.69497 13.2119 8.62301 13.8972C8.6173 13.94 8.61388 13.9857 8.61159 14.0308C8.60874 14.0554 8.60817 14.0811 8.60645 14.1056C8.60645 14.1559 8.60303 14.2079 8.60303 14.2604V14.4026L9.2883 15.6178L9.30372 15.6446L9.98898 16.861L10.005 16.8696V15.0347C10.0051 14.9477 10.0125 14.8607 10.0272 14.7749C10.0388 14.7045 10.0579 14.6356 10.0844 14.5693C10.1169 14.492 10.1612 14.4201 10.2157 14.3563C10.2277 14.3415 10.2425 14.3289 10.2562 14.3146C10.2784 14.2937 10.3023 14.2746 10.3276 14.2575C10.5281 14.1245 10.805 14.1245 11.1111 14.2935C11.1953 14.3409 11.2734 14.3984 11.3435 14.4648C11.3951 14.5114 11.4428 14.562 11.4863 14.6162V14.6162C11.5575 14.702 11.6204 14.7943 11.6742 14.892V14.892C11.8201 15.1414 11.9006 15.4237 11.9083 15.7126L11.9289 15.7246C11.9155 15.8448 11.9085 15.9657 11.9077 16.0866L11.9026 20.2799L12.5816 21.4866L12.6021 21.5237L13.2823 22.7303L13.304 22.7423L13.3108 16.8633C13.3105 16.807 13.3132 16.7508 13.3188 16.6948C13.3257 16.6428 13.3342 16.5926 13.3451 16.5458C13.3579 16.4911 13.3756 16.4378 13.3982 16.3864C13.4183 16.3391 13.4427 16.2938 13.4713 16.2511C13.4891 16.2252 13.5082 16.2003 13.5284 16.1763C13.5601 16.1429 13.5954 16.1131 13.6335 16.0872C13.8351 15.9541 14.1103 15.9536 14.4158 16.1226C14.4709 16.1537 14.5236 16.1888 14.5734 16.2277C14.6262 16.2706 14.6759 16.3169 14.7225 16.3665C14.7975 16.446 14.8648 16.5324 14.9235 16.6246C14.9355 16.644 14.9486 16.6651 14.9618 16.6885L14.9812 16.7199C15.0192 16.7854 15.0528 16.8533 15.0817 16.9232C15.1102 16.9916 15.1346 17.0616 15.1548 17.1328C15.174 17.201 15.1893 17.2702 15.2005 17.3401C15.2104 17.4067 15.2153 17.4738 15.2153 17.5411L15.2359 17.5525C15.2224 17.673 15.2156 17.794 15.2153 17.9152L15.2056 26.1578L15.88 27.357L15.904 27.3999L16.5761 28.5991L16.6041 28.6145L16.6155 18.316C16.6155 17.6205 16.4025 16.8461 16.0091 16.1255C15.9965 16.1026 15.9857 16.0798 15.972 16.0564C15.908 15.9422 15.8395 15.8279 15.7681 15.724C15.6967 15.6201 15.6236 15.5127 15.5465 15.4145C15.5151 15.374 15.4848 15.3368 15.4534 15.3003C15.3316 15.1519 15.1998 15.012 15.0588 14.8817C14.8646 14.7004 14.6495 14.5428 14.4181 14.4123" fill="#637381"/>
<path d="M25.9348 8.90234L25.9062 8.91719L26.0108 8.91776L25.9845 8.90291L25.9348 8.90234Z" fill="#637381"/>
<path d="M19.2141 8.82422L19.1855 8.83849L19.2832 8.83964L19.2558 8.82479L19.2141 8.82422Z" fill="#637381"/>
<path d="M12.4932 8.74609L12.4658 8.7598L12.5509 8.76094L12.5241 8.74609H12.4932Z" fill="#637381"/>
<path d="M11.0988 9.45703L10.6357 9.69288C10.0252 10.0041 9.68088 10.4221 9.66489 10.8698C9.6489 11.3175 9.96184 11.7441 10.5472 12.0691C11.2079 12.434 12.0776 12.6281 12.9616 12.6527C12.9591 12.6668 12.9574 12.6811 12.9565 12.6955C12.9376 13.1444 13.25 13.5698 13.8376 13.8947C15.2156 14.6565 17.5027 14.6816 18.9354 13.9518L27.354 9.66261L27.3271 9.64776L24.5381 9.61579L17.5421 13.1798C16.9093 13.5018 15.8986 13.4904 15.2904 13.1541C15.0768 13.0364 14.9637 12.8817 14.97 12.7183C14.9763 12.555 15.1014 12.4031 15.3224 12.2901L15.6462 12.1256L20.6309 9.58552L20.5995 9.56782L17.8185 9.53584L14.2505 11.3541C13.6183 11.6762 12.6087 11.6647 11.9999 11.3284C11.7875 11.2108 11.6727 11.056 11.6796 10.8921C11.6864 10.7282 11.8092 10.5774 12.0308 10.4644L13.9044 9.51014L13.8679 9.48958L11.0988 9.45703Z" fill="#637381"/>
<path d="M14.5155 4.2155C13.8273 4.56556 13.463 5.02812 13.4168 5.4981H13.3397H13.3351C13.1277 5.49486 12.9203 5.50325 12.7138 5.52323C12.5625 5.53807 12.414 5.55749 12.2695 5.58033C11.8583 5.6483 11.4594 5.77665 11.0857 5.96123C10.909 6.04885 10.7419 6.15469 10.5872 6.27702C10.5643 6.29473 10.5403 6.313 10.5203 6.33413C10.4804 6.36769 10.4423 6.40333 10.4061 6.44092C10.3857 6.45854 10.3667 6.47763 10.349 6.49802C10.329 6.51915 10.3096 6.54028 10.2919 6.56312C10.2742 6.58597 10.2474 6.62023 10.2274 6.64478C10.0941 6.81868 10.012 7.02636 9.99041 7.2444C9.94929 7.67954 10.1857 8.12268 10.7042 8.48816C10.7356 8.51157 10.771 8.53442 10.8064 8.55726L10.8636 8.59438C10.903 8.61893 10.9452 8.64292 10.988 8.6669L11.1023 8.73086L12.4939 8.74628H12.5248L13.917 8.76227L13.9341 8.7537L12.438 7.92681C12.368 7.88791 12.3015 7.843 12.2392 7.79261C12.1897 7.75158 12.1452 7.70481 12.1067 7.65327C12.0627 7.59383 12.0298 7.52688 12.0097 7.45569C12.0053 7.43914 12.0019 7.42236 11.9994 7.40543C11.9957 7.37876 11.9945 7.3518 11.996 7.32492C12.0045 7.10906 12.1673 6.89434 12.4836 6.73273C12.5717 6.68801 12.6644 6.65315 12.76 6.62879C12.8279 6.61002 12.897 6.59571 12.9668 6.58597V6.58597C13.0779 6.56934 13.1902 6.56208 13.3025 6.56427V6.56427C13.5825 6.56097 13.8592 6.62543 14.1089 6.75214L14.1311 6.74072C14.2218 6.80609 14.3162 6.86615 14.4138 6.92061L17.8316 8.80967L19.2136 8.82566H19.2553L20.6349 8.84107L20.6578 8.82965L15.8655 6.18051C15.8197 6.15569 15.7755 6.12824 15.733 6.09828C15.6961 6.07103 15.6606 6.04187 15.6268 6.01091C15.5898 5.97634 15.5565 5.93807 15.5274 5.8967C15.5011 5.8596 15.4785 5.82001 15.46 5.77849C15.4498 5.75239 15.4412 5.72569 15.4343 5.69854C15.4257 5.65859 15.4219 5.61776 15.4229 5.57691C15.4326 5.36047 15.5942 5.14633 15.91 4.98529C15.9676 4.9565 16.0269 4.93132 16.0876 4.90991C16.1534 4.88805 16.2206 4.87031 16.2886 4.8568C16.3967 4.83418 16.5066 4.82061 16.617 4.81626C16.6398 4.81626 16.6649 4.81626 16.6912 4.81626H16.7283C16.8033 4.81589 16.8783 4.82028 16.9527 4.82939C17.027 4.83853 17.0984 4.85109 17.1669 4.86651C17.2332 4.88179 17.2986 4.90086 17.3628 4.92362C17.4218 4.9456 17.479 4.97194 17.5341 5.00242L17.5552 4.99157C17.6469 5.05672 17.7422 5.11659 17.8407 5.17088L24.5587 8.88276L25.9326 8.89875H25.9823L27.3529 8.91531L27.3814 8.90046L18.9869 4.26005C18.4204 3.94654 17.6631 3.76494 16.8454 3.74609C16.8186 3.74609 16.794 3.74609 16.7672 3.74609C16.6358 3.74609 16.5045 3.74609 16.3766 3.75523C16.2486 3.76437 16.119 3.77236 15.9939 3.78778C15.9425 3.79406 15.8946 3.80092 15.8455 3.80834C15.6529 3.83663 15.4623 3.87629 15.2744 3.92712C15.0126 3.99584 14.7587 4.09153 14.5166 4.21265" fill="#637381"/>
<path d="M27.7956 22.0273L27.7671 22.0422L27.8208 22.077V22.0445L27.7956 22.0273Z" fill="#637381"/>
<path d="M24.3783 19.7383L24.3503 19.7526L24.4 19.7857V19.7526L24.3783 19.7383Z" fill="#637381"/>
<path d="M20.9617 17.4531L20.9343 17.4668L20.9772 17.4965V17.4634L20.9617 17.4531Z" fill="#637381"/>
<path d="M19.5678 18.1624L19.1046 18.3983C18.4948 18.7095 17.922 19.2806 17.4931 20.0047C17.0643 20.7288 16.8233 21.5254 16.8227 22.2404C16.8227 23.0478 17.0905 23.6435 17.5262 23.9678C17.512 23.9907 17.4965 24.0124 17.4834 24.0358C17.0506 24.761 16.8124 25.5548 16.8113 26.2732C16.8113 27.9572 17.9734 28.7327 19.4056 28.0029L27.819 23.716V23.6834L26.4005 22.7355L19.4073 26.2983C18.7757 26.6204 18.2612 26.2772 18.2618 25.5342C18.2703 25.2459 18.3546 24.9648 18.5062 24.7193C18.6442 24.4743 18.8471 24.2722 19.0927 24.1351L19.4159 23.9707L24.3978 21.4317V21.3935L22.9838 20.4478L19.4182 22.2638C18.786 22.5859 18.2726 22.2432 18.276 21.4991C18.2844 21.2111 18.3687 20.9303 18.5205 20.6854C18.6577 20.4404 18.8604 20.2383 19.1058 20.1018L20.9783 19.1475V19.103L19.5706 18.1602" fill="#637381"/>
<path d="M26.2805 10.7187C25.5952 11.0693 24.9671 11.7055 24.5028 12.457C24.4902 12.4478 24.4788 12.437 24.4651 12.4278C24.3595 12.3557 24.2422 12.3022 24.1185 12.2697C24.0252 12.2443 23.9295 12.2291 23.833 12.2245C23.532 12.2097 23.2019 12.2902 22.8593 12.465C22.663 12.5655 22.4766 12.6842 22.3025 12.8196C22.274 12.8407 22.2454 12.863 22.2169 12.887C22.1598 12.9304 22.1095 12.9761 22.057 13.0235C22.0296 13.0463 22.0033 13.0709 21.9765 13.096C21.9496 13.1211 21.9159 13.1531 21.8857 13.1839C21.8554 13.2148 21.8108 13.2587 21.7749 13.2981C21.5118 13.5745 21.2786 13.8779 21.0793 14.2033C20.6482 14.8988 20.3535 15.6972 20.2798 16.4589C20.2736 16.5075 20.2701 16.5566 20.2678 16.604C20.265 16.6314 20.2644 16.6571 20.2627 16.6839C20.2598 16.7365 20.2593 16.7896 20.2593 16.8416V16.9832L20.9674 17.456L20.9828 17.4663L21.6915 17.9391L21.7081 17.9306V16.1032C21.7087 16.0087 21.7163 15.9144 21.7309 15.8211C21.7456 15.7297 21.7664 15.6395 21.7931 15.551C21.8303 15.4305 21.8757 15.3128 21.9291 15.1986C21.9416 15.1706 21.957 15.1415 21.9713 15.113C21.9936 15.069 22.0198 15.0227 22.045 14.9805C22.2528 14.6316 22.5395 14.3335 22.8564 14.1719C22.932 14.1319 23.0136 14.1047 23.098 14.0913C23.1468 14.0834 23.1966 14.0834 23.2453 14.0913V14.0913C23.3153 14.0982 23.3823 14.1227 23.4401 14.1627V14.1627C23.5965 14.2655 23.6828 14.4677 23.6822 14.7275L23.7045 14.7161C23.6906 14.8435 23.6832 14.9716 23.6822 15.0998L23.6771 19.2765L24.3812 19.7402L24.4029 19.7545L25.1041 20.2234L25.127 20.2114L25.1338 14.3552C25.1336 14.2962 25.1365 14.2373 25.1424 14.1787C25.1492 14.1216 25.1584 14.0599 25.1692 14.0023C25.1846 13.9294 25.2036 13.8573 25.2263 13.7864C25.2486 13.7144 25.2743 13.6425 25.3023 13.5734C25.3217 13.5266 25.3428 13.4803 25.3645 13.434C25.3982 13.3655 25.4342 13.2976 25.473 13.2325C25.682 12.883 25.967 12.5855 26.2839 12.4244C26.3362 12.3979 26.3907 12.3759 26.4467 12.3587C26.4972 12.3452 26.5492 12.3377 26.6015 12.3365C26.6731 12.3336 26.7444 12.3472 26.8099 12.3764C26.8225 12.3825 26.8356 12.39 26.8493 12.3987L26.8693 12.4096C26.9093 12.4344 26.9446 12.4664 26.9732 12.5038C27.0041 12.5434 27.0298 12.5867 27.0497 12.6329C27.0707 12.6837 27.0864 12.7365 27.0966 12.7905C27.1074 12.8511 27.1126 12.9127 27.112 12.9743L27.1331 12.9635C27.1205 13.0926 27.112 13.2205 27.112 13.3467L27.1023 21.5568L27.8007 22.0245L27.8258 22.0416L28.5225 22.5082L28.551 22.4933L28.5625 12.2348C28.5625 11.5421 28.3415 11.0031 27.9343 10.7095C27.9212 10.7004 27.9103 10.6895 27.896 10.681C27.8299 10.6362 27.7588 10.5992 27.6842 10.5708C27.6108 10.5392 27.5342 10.5156 27.4558 10.5005C27.4232 10.4948 27.3918 10.4897 27.3592 10.4868C27.223 10.4706 27.0852 10.4736 26.9498 10.496C26.7182 10.5347 26.4942 10.6101 26.2862 10.7192" fill="#637381"/>
<path d="M76.0219 24.0388H74.1887C73.2025 24.0378 72.2571 23.6486 71.5598 22.9565C70.8625 22.2645 70.4703 21.3262 70.4692 20.3475V8.46484H72.4089V20.3475C72.4089 20.8165 72.5966 21.2664 72.9308 21.5981C73.265 21.9297 73.7183 22.1161 74.1909 22.1161H76.0241L76.0219 24.0388Z" fill="#637381"/>
<path d="M76.7075 24.313C76.4599 24.3131 76.2178 24.2403 76.0119 24.1039C75.8059 23.9674 75.6454 23.7734 75.5505 23.5464C75.4557 23.3194 75.4308 23.0696 75.4791 22.8285C75.5273 22.5875 75.6465 22.366 75.8215 22.1922C75.9966 22.0184 76.2197 21.9 76.4625 21.852C76.7054 21.8041 76.9571 21.8286 77.1859 21.9226C77.4147 22.0167 77.6102 22.1759 77.7478 22.3802C77.8854 22.5846 77.9588 22.8248 77.9588 23.0706C77.9585 23.3999 77.8266 23.7156 77.592 23.9486C77.3574 24.1815 77.0393 24.3125 76.7075 24.313Z" fill="#637381"/>
<path d="M76.7076 22.104C76.9002 22.104 77.0884 22.1607 77.2485 22.2669C77.4086 22.373 77.5334 22.524 77.607 22.7005C77.6807 22.8771 77.6999 23.0714 77.6623 23.2588C77.6247 23.4462 77.5319 23.6183 77.3958 23.7534C77.2596 23.8885 77.0861 23.9805 76.8972 24.0177C76.7083 24.0549 76.5126 24.0357 76.3347 23.9625C76.1569 23.8893 76.0049 23.7654 75.898 23.6064C75.7911 23.4475 75.7341 23.2606 75.7342 23.0695C75.7342 22.9427 75.7594 22.8171 75.8083 22.6998C75.8572 22.5826 75.9289 22.4761 76.0193 22.3864C76.1097 22.2967 76.217 22.2256 76.3351 22.177C76.4532 22.1285 76.5798 22.1035 76.7076 22.1035V22.104ZM76.7076 21.5508C76.4049 21.5507 76.109 21.6397 75.8573 21.8065C75.6055 21.9733 75.4093 22.2105 75.2934 22.488C75.1775 22.7655 75.1471 23.0709 75.2061 23.3655C75.2651 23.6602 75.4108 23.9308 75.6248 24.1433C75.8388 24.3557 76.1114 24.5004 76.4083 24.5591C76.7052 24.6177 77.0129 24.5877 77.2926 24.4728C77.5722 24.3578 77.8113 24.1632 77.9794 23.9134C78.1476 23.6636 78.2374 23.37 78.2374 23.0695C78.2369 22.667 78.0756 22.281 77.7889 21.9963C77.5021 21.7116 77.1133 21.5514 76.7076 21.5508V21.5508Z" fill="white"/>
<path d="M52.0132 22.1846V22.1133H51.9419L52.0132 22.1846Z" fill="#637381"/>
<path d="M47.4322 17.6316V17.5664H47.3665L47.4322 17.6316Z" fill="#637381"/>
<path d="M42.8492 13.0737V13.0156H42.7913L42.8492 13.0737Z" fill="#637381"/>
<path d="M50.1141 22.1122H40.7623C40.3556 22.1118 39.9656 21.9512 39.678 21.6657C39.3904 21.3803 39.2286 20.9933 39.2281 20.5896C39.2293 20.298 39.3465 20.0188 39.5541 19.8126C39.7618 19.6064 40.0431 19.4899 40.3369 19.4886H47.4321V19.4455L45.5387 17.5636H40.7701C40.3637 17.5628 39.9742 17.402 39.6871 17.1166C39.3999 16.8311 39.2385 16.4444 39.2382 16.041C39.2383 15.7492 39.3552 15.4694 39.5631 15.2631C39.771 15.0567 40.0529 14.9408 40.3469 14.9406H42.8529V14.8903L40.9645 13.0156H40.3452C39.5368 13.0161 38.7617 13.3349 38.19 13.9022C37.6183 14.4694 37.2969 15.2387 37.2963 16.041C37.2973 16.9175 37.636 17.7604 38.243 18.3971C38.2241 18.4148 38.204 18.4308 38.1873 18.449C37.9019 18.7288 37.6754 19.0621 37.5212 19.4296C37.367 19.7971 37.2881 20.1915 37.2891 20.5896C37.2901 21.5036 37.6564 22.3799 38.3077 23.0263C38.9589 23.6726 39.8419 24.0362 40.7629 24.0372H52.0119V24.0002L50.1141 22.1122Z" fill="#637381"/>
<path d="M61.2558 9.35306C60.9732 9.0716 60.6372 8.84853 60.2672 8.69675C59.8972 8.54496 59.5005 8.46748 59.1001 8.46877C58.2158 8.46898 57.3652 8.80518 56.7228 9.40832C56.7055 9.39008 56.6894 9.37019 56.6716 9.35306C56.3889 9.07207 56.0531 8.84929 55.6835 8.69753C55.3138 8.54577 54.9176 8.46803 54.5175 8.46877C53.6334 8.46896 52.7829 8.80517 52.1408 9.40832C52.1235 9.39008 52.1079 9.37019 52.0901 9.35306C51.8073 9.07196 51.4713 8.84912 51.1015 8.69736C50.7316 8.5456 50.3352 8.46791 49.9349 8.46877C49.0509 8.46848 48.2004 8.80476 47.5587 9.40832C47.5415 9.39008 47.5264 9.37074 47.5086 9.35306C47.2261 9.07164 46.8901 8.84859 46.5202 8.69681C46.1503 8.54503 45.7538 8.46752 45.3535 8.46877C44.4327 8.4695 43.5498 8.83274 42.8985 9.47877C42.2472 10.1248 41.8808 11.0009 41.8796 11.9147V12.0711L43.7959 13.9762H43.8193V11.9142C43.82 11.5107 43.9819 11.124 44.2695 10.8389C44.5571 10.5538 44.947 10.3935 45.3535 10.3932C45.4992 10.3931 45.6435 10.4214 45.7781 10.4767C45.9127 10.532 46.035 10.6131 46.138 10.7154C46.241 10.8176 46.3227 10.9391 46.3783 11.0727C46.4339 11.2063 46.4624 11.3495 46.4622 11.4941H46.4906C46.4727 11.6335 46.4632 11.7737 46.4622 11.9142V16.628L48.3712 18.5259H48.4024V11.9142C48.4028 11.5109 48.5645 11.1243 48.8518 10.8392C49.1391 10.554 49.5286 10.3936 49.9349 10.3932C50.0808 10.3927 50.2253 10.4208 50.3601 10.476C50.4949 10.5311 50.6174 10.6122 50.7205 10.7145C50.8236 10.8169 50.9053 10.9384 50.9609 11.0722C51.0164 11.206 51.0448 11.3494 51.0443 11.4941H51.0727C51.0544 11.6334 51.045 11.7737 51.0443 11.9142V21.1826L52.9471 23.0739H52.9839V11.9142C52.9846 11.5107 53.1465 11.124 53.4342 10.8389C53.7218 10.5538 54.1116 10.3935 54.5181 10.3932C54.6638 10.3931 54.808 10.4216 54.9426 10.4769C55.0772 10.5322 55.1995 10.6133 55.3025 10.7155C55.4054 10.8178 55.4871 10.9392 55.5428 11.0728C55.5984 11.2064 55.627 11.3496 55.6268 11.4941V24.0367H57.5553V23.0739H57.567V11.9142C57.5678 11.5108 57.7296 11.1242 58.0171 10.8391C58.3046 10.554 58.6943 10.3936 59.1007 10.3932C59.2464 10.3931 59.3907 10.4214 59.5254 10.4767C59.66 10.532 59.7824 10.6131 59.8854 10.7153C59.9884 10.8176 60.0701 10.939 60.1258 11.0727C60.1815 11.2063 60.2101 11.3495 60.21 11.4941V23.0739H60.2211V24.0367H62.1496V11.4941C62.1507 11.0963 62.0723 10.7023 61.9188 10.3347C61.7654 9.96721 61.5401 9.63354 61.2558 9.35306V9.35306Z" fill="#637381"/>
<path d="M41.8796 13.9791H41.9687L41.8796 13.8906V13.9791Z" fill="#637381"/>
<path d="M46.4622 18.5266H46.5435L46.4622 18.4453V18.5266Z" fill="#637381"/>
<path d="M51.0437 23.0746H51.1189L51.0437 23V23.0746Z" fill="#637381"/>
<path d="M45.3383 10.3945C44.9319 10.395 44.5423 10.5553 44.2548 10.8404C43.9673 11.1255 43.8054 11.5122 43.8047 11.9155V13.9461L43.8375 13.9787H43.8604V11.9155C43.8611 11.5184 44.0181 11.1374 44.2978 10.8535C44.5775 10.5696 44.9579 10.4053 45.3578 10.3956L45.3383 10.3945Z" fill="#637381"/>
<path d="M47.4918 9.35306C47.5101 9.37129 47.5257 9.39119 47.5436 9.40832L47.5747 9.38069C47.5664 9.37129 47.558 9.3619 47.5491 9.35306C47.2666 9.07161 46.9307 8.84855 46.5608 8.69677C46.1908 8.54498 45.7943 8.46749 45.394 8.46877H45.3667C46.1647 8.47452 46.9283 8.79225 47.4918 9.35306V9.35306Z" fill="#637381"/>
<path d="M61.2964 9.35305C61.0139 9.07164 60.6779 8.84859 60.308 8.69681C59.9381 8.54503 59.5415 8.46752 59.1413 8.46876C58.2569 8.46887 57.4062 8.80508 56.7639 9.40832C56.7461 9.39008 56.7305 9.37019 56.7121 9.35305C56.4296 9.07202 56.0938 8.84921 55.7241 8.69745C55.3544 8.54568 54.9582 8.46797 54.5581 8.46876C53.6742 8.46899 52.8238 8.8052 52.1819 9.40832C52.1641 9.39008 52.149 9.37019 52.1307 9.35305C51.8479 9.07191 51.512 8.84904 51.1421 8.69728C50.7722 8.54551 50.3758 8.46785 49.9755 8.46876H49.9482C50.7522 8.47547 51.5209 8.79721 52.0868 9.36388C52.6528 9.93056 52.9702 10.6962 52.9699 11.4941V23.0568L52.9872 23.0739H53.0245V11.9142C53.0251 11.5108 53.1869 11.1241 53.4744 10.8389C53.7619 10.5538 54.1516 10.3935 54.5581 10.3932C54.7037 10.3932 54.8479 10.4217 54.9825 10.477C55.117 10.5324 55.2392 10.6135 55.3421 10.7157C55.445 10.818 55.5266 10.9393 55.5823 11.0729C55.6379 11.2065 55.6665 11.3496 55.6663 11.4941V24.0367H57.5948V23.0739H57.6059V11.9142C57.6067 11.5107 57.7686 11.124 58.0562 10.8389C58.3438 10.5538 58.7336 10.3935 59.1401 10.3932C59.2858 10.3931 59.4301 10.4216 59.5647 10.4769C59.6993 10.5322 59.8215 10.6133 59.9245 10.7155C60.0275 10.8178 60.1091 10.9392 60.1648 11.0728C60.2205 11.2064 60.249 11.3496 60.2489 11.4941V23.0739H60.2606V24.0367H62.1891V11.4941C62.1903 11.0964 62.112 10.7024 61.9588 10.3349C61.8056 9.96736 61.5804 9.63365 61.2964 9.35305V9.35305Z" fill="#637381"/>
<path d="M49.9209 10.3945C49.5144 10.3948 49.1246 10.5551 48.837 10.8402C48.5494 11.1254 48.3875 11.5121 48.3867 11.9155V18.5024L48.4118 18.5272H48.443V11.9155C48.4434 11.5185 48.6002 11.1373 48.8799 10.8533C49.1595 10.5694 49.5399 10.4052 49.9399 10.3956L49.9209 10.3945Z" fill="#637381"/>
<path d="M82.2113 8.44531V20.3445C82.2108 21.1009 81.9765 21.8388 81.54 22.4588C81.1036 23.0788 80.4859 23.5509 79.7705 23.8115V23.8115C79.3617 23.9612 78.9293 24.0373 78.4936 24.0364H76.6609V22.1109H78.4941C78.9668 22.1109 79.42 21.9246 79.7542 21.5929C80.0884 21.2612 80.2762 20.8114 80.2762 20.3423V16.3293C80.1494 16.3905 80.0192 16.4446 79.8864 16.4912C80.137 16.2139 80.2758 15.8546 80.2762 15.482V8.44531H82.2113Z" fill="#637381"/>
<path d="M68.7112 9.34133C68.4284 9.05998 68.0922 8.83699 67.7221 8.68521C67.3521 8.53344 66.9554 8.45589 66.5549 8.45704C65.7031 8.45741 64.8814 8.76973 64.2472 9.33415L64.216 9.36234C64.0629 9.50167 63.9226 9.65426 63.7967 9.8183C63.7755 9.84593 63.7538 9.87357 63.7332 9.9023C63.7015 9.94707 63.6697 9.99184 63.6396 10.0377C63.6096 10.0836 63.584 10.1234 63.5606 10.1665C63.5277 10.2218 63.496 10.277 63.4659 10.3367C63.4358 10.3964 63.4058 10.4555 63.3785 10.5169C63.3623 10.5528 63.3473 10.5893 63.3328 10.6274C63.3072 10.6893 63.2844 10.7523 63.2626 10.8164C63.2526 10.8463 63.2415 10.8761 63.232 10.9065C63.2036 10.9994 63.1763 11.0933 63.1591 11.1895C63.1535 11.2138 63.1496 11.2392 63.1451 11.2641C63.1301 11.3426 63.1178 11.4216 63.1084 11.5018C63.105 11.5316 63.1011 11.5609 63.0989 11.5907C63.0889 11.6941 63.0828 11.7986 63.0828 11.9047V20.3342C63.0832 21.0843 63.3137 21.8165 63.7436 22.4334C64.1736 23.0504 64.7826 23.5228 65.4896 23.7879C65.9078 23.9453 66.3515 24.0257 66.7988 24.025H68.6366C68.7639 24.025 68.8901 24.0002 69.0077 23.9519C69.1254 23.9036 69.2324 23.8327 69.3225 23.7433C69.4126 23.654 69.484 23.5479 69.5328 23.4311C69.5815 23.3143 69.6066 23.1892 69.6066 23.0627V22.1005L66.3461 22.0397C65.967 21.9397 65.6317 21.7184 65.3923 21.41C65.1529 21.1016 65.0226 20.7235 65.0218 20.3342V18.9795H66.0894C66.1033 18.9795 66.1167 18.9795 66.1306 18.9795C66.1445 18.9795 66.1568 18.9795 66.1696 18.9795H66.2197C67.1245 18.9565 67.9845 18.584 68.6167 17.9412C69.249 17.2985 69.6035 16.4362 69.605 15.538V11.483C69.6059 11.0851 69.5274 10.691 69.374 10.3234C69.2206 9.95581 68.9953 9.62203 68.7112 9.34133V9.34133ZM67.6637 15.5358C67.6637 15.9207 67.5165 16.2912 67.2517 16.5724C66.9869 16.8537 66.6244 17.0246 66.2375 17.0507V17.0623H65.0218V12.2844V11.9052C65.0223 11.5017 65.1841 11.1148 65.4718 10.8296C65.7595 10.5444 66.1494 10.3842 66.556 10.3842C66.7016 10.3836 66.8458 10.4116 66.9804 10.4666C67.115 10.5217 67.2373 10.6026 67.3401 10.7048C67.3885 10.7522 67.4317 10.8045 67.4693 10.8607C67.5975 11.0438 67.6657 11.2617 67.6648 11.4846V14.1077L67.6637 15.5358Z" fill="#637381"/>
<path d="M69.7393 24.2052C70.3997 24.2052 70.935 23.674 70.935 23.0186C70.935 22.3633 70.3997 21.832 69.7393 21.832C69.079 21.832 68.5437 22.3633 68.5437 23.0186C68.5437 23.674 69.079 24.2052 69.7393 24.2052Z" fill="#637381"/>
<path d="M69.7393 22.0515C69.9318 22.0514 70.1201 22.108 70.2803 22.2141C70.4404 22.3202 70.5653 22.4711 70.639 22.6476C70.7128 22.8242 70.7321 23.0185 70.6946 23.2059C70.657 23.3934 70.5643 23.5656 70.4281 23.7007C70.292 23.8359 70.1185 23.9279 69.9296 23.9652C69.7407 24.0024 69.5449 23.9832 69.367 23.91C69.1891 23.8369 69.0371 23.7129 68.9302 23.554C68.8233 23.395 68.7663 23.2082 68.7664 23.0171C68.7665 22.761 68.8691 22.5155 69.0515 22.3345C69.2339 22.1534 69.4813 22.0517 69.7393 22.0515ZM69.7393 21.6094C69.4586 21.6094 69.1842 21.692 68.9509 21.8467C68.7175 22.0015 68.5356 22.2215 68.4283 22.4788C68.3209 22.7362 68.2928 23.0194 68.3476 23.2925C68.4024 23.5657 68.5376 23.8166 68.7361 24.0136C68.9346 24.2105 69.1875 24.3446 69.4628 24.3988C69.7381 24.4531 70.0234 24.4252 70.2826 24.3185C70.5419 24.2118 70.7635 24.0312 70.9193 23.7996C71.0752 23.5679 71.1583 23.2956 71.1582 23.0171C71.1577 22.6438 71.0081 22.2859 70.7421 22.022C70.476 21.7581 70.1154 21.6097 69.7393 21.6094Z" fill="white"/>
<path d="M69.6837 24.2052C70.344 24.2052 70.8793 23.674 70.8793 23.0186C70.8793 22.3633 70.344 21.832 69.6837 21.832C69.0233 21.832 68.488 22.3633 68.488 23.0186C68.488 23.674 69.0233 24.2052 69.6837 24.2052Z" fill="#637381"/>
<path d="M69.6836 22.0515C69.8762 22.0514 70.0644 22.108 70.2246 22.2141C70.3848 22.3202 70.5096 22.4711 70.5834 22.6476C70.6571 22.8242 70.6764 23.0185 70.6389 23.2059C70.6014 23.3934 70.5086 23.5656 70.3725 23.7007C70.2363 23.8359 70.0628 23.9279 69.8739 23.9652C69.685 24.0024 69.4893 23.9832 69.3114 23.91C69.1335 23.8369 68.9815 23.7129 68.8745 23.554C68.7676 23.395 68.7106 23.2082 68.7107 23.0171C68.7109 22.761 68.8134 22.5155 68.9958 22.3345C69.1782 22.1534 69.4256 22.0517 69.6836 22.0515ZM69.6836 21.6094C69.4029 21.6094 69.1286 21.692 68.8952 21.8467C68.6619 22.0015 68.48 22.2215 68.3726 22.4788C68.2652 22.7362 68.2372 23.0194 68.292 23.2925C68.3467 23.5657 68.4819 23.8166 68.6804 24.0136C68.8789 24.2105 69.1318 24.3446 69.4071 24.3988C69.6824 24.4531 69.9677 24.4252 70.227 24.3185C70.4862 24.2118 70.7078 24.0312 70.8637 23.7996C71.0195 23.5679 71.1026 23.2956 71.1025 23.0171C71.1021 22.6438 70.9524 22.2859 70.6864 22.022C70.4204 21.7581 70.0597 21.6097 69.6836 21.6094Z" fill="white"/>
<path d="M69.628 24.2052C70.2883 24.2052 70.8236 23.674 70.8236 23.0186C70.8236 22.3633 70.2883 21.832 69.628 21.832C68.9677 21.832 68.4324 22.3633 68.4324 23.0186C68.4324 23.674 68.9677 24.2052 69.628 24.2052Z" fill="#637381"/>
<path d="M69.6279 22.0515C69.8205 22.0514 70.0088 22.108 70.1689 22.2141C70.3291 22.3202 70.454 22.4711 70.5277 22.6476C70.6014 22.8242 70.6208 23.0185 70.5832 23.2059C70.5457 23.3934 70.453 23.5656 70.3168 23.7007C70.1806 23.8359 70.0071 23.9279 69.8182 23.9652C69.6294 24.0024 69.4336 23.9832 69.2557 23.91C69.0778 23.8369 68.9258 23.7129 68.8189 23.554C68.7119 23.395 68.6549 23.2082 68.655 23.0171C68.6552 22.761 68.7577 22.5155 68.9402 22.3345C69.1226 22.1534 69.3699 22.0517 69.6279 22.0515ZM69.6279 21.6094C69.3473 21.6094 69.0729 21.692 68.8395 21.8467C68.6062 22.0015 68.4243 22.2215 68.3169 22.4788C68.2096 22.7362 68.1815 23.0194 68.2363 23.2925C68.2911 23.5657 68.4263 23.8166 68.6248 24.0136C68.8233 24.2105 69.0762 24.3446 69.3514 24.3988C69.6267 24.4531 69.912 24.4252 70.1713 24.3185C70.4306 24.2118 70.6521 24.0312 70.808 23.7996C70.9638 23.5679 71.047 23.2956 71.0469 23.0171C71.0464 22.6438 70.8968 22.2859 70.6307 22.022C70.3647 21.7581 70.0041 21.6097 69.6279 21.6094Z" fill="white"/>
<path d="M69.5723 24.2052C70.2327 24.2052 70.768 23.674 70.768 23.0186C70.768 22.3633 70.2327 21.832 69.5723 21.832C68.912 21.832 68.3767 22.3633 68.3767 23.0186C68.3767 23.674 68.912 24.2052 69.5723 24.2052Z" fill="#637381"/>
<path d="M69.5723 22.0515C69.7648 22.0514 69.9531 22.108 70.1133 22.2141C70.2734 22.3202 70.3983 22.4711 70.472 22.6476C70.5458 22.8242 70.5651 23.0185 70.5276 23.2059C70.49 23.3934 70.3973 23.5656 70.2611 23.7007C70.125 23.8359 69.9515 23.9279 69.7626 23.9652C69.5737 24.0024 69.3779 23.9832 69.2 23.91C69.0221 23.8369 68.8701 23.7129 68.7632 23.554C68.6563 23.395 68.5993 23.2082 68.5994 23.0171C68.5995 22.761 68.7021 22.5155 68.8845 22.3345C69.0669 22.1534 69.3143 22.0517 69.5723 22.0515ZM69.5723 21.6094C69.2916 21.6094 69.0172 21.692 68.7839 21.8467C68.5505 22.0015 68.3687 22.2215 68.2613 22.4788C68.1539 22.7362 68.1258 23.0194 68.1806 23.2925C68.2354 23.5657 68.3706 23.8166 68.5691 24.0136C68.7676 24.2105 69.0205 24.3446 69.2958 24.3988C69.5711 24.4531 69.8564 24.4252 70.1156 24.3185C70.3749 24.2118 70.5965 24.0312 70.7523 23.7996C70.9082 23.5679 70.9913 23.2956 70.9912 23.0171C70.9908 22.6438 70.8411 22.2859 70.5751 22.022C70.3091 21.7581 69.9484 21.6097 69.5723 21.6094Z" fill="white"/>
<path d="M69.5164 24.2052C70.1768 24.2052 70.7121 23.674 70.7121 23.0186C70.7121 22.3633 70.1768 21.832 69.5164 21.832C68.8561 21.832 68.3208 22.3633 68.3208 23.0186C68.3208 23.674 68.8561 24.2052 69.5164 24.2052Z" fill="#637381"/>
<path d="M69.5166 22.0515C69.7092 22.0514 69.8974 22.108 70.0576 22.2141C70.2178 22.3202 70.3426 22.4711 70.4164 22.6476C70.4901 22.8242 70.5094 23.0185 70.4719 23.2059C70.4344 23.3934 70.3416 23.5656 70.2055 23.7007C70.0693 23.8359 69.8958 23.9279 69.7069 23.9652C69.518 24.0024 69.3223 23.9832 69.1444 23.91C68.9665 23.8369 68.8145 23.7129 68.7075 23.554C68.6006 23.395 68.5436 23.2082 68.5437 23.0171C68.5439 22.761 68.6464 22.5155 68.8288 22.3345C69.0112 22.1534 69.2586 22.0517 69.5166 22.0515ZM69.5166 21.6094C69.2359 21.6094 68.9616 21.692 68.7282 21.8467C68.4949 22.0015 68.313 22.2215 68.2056 22.4788C68.0982 22.7362 68.0702 23.0194 68.125 23.2925C68.1798 23.5657 68.315 23.8166 68.5135 24.0136C68.7119 24.2105 68.9648 24.3446 69.2401 24.3988C69.5154 24.4531 69.8007 24.4252 70.06 24.3185C70.3193 24.2118 70.5408 24.0312 70.6967 23.7996C70.8525 23.5679 70.9356 23.2956 70.9355 23.0171C70.9351 22.6438 70.7854 22.2859 70.5194 22.022C70.2534 21.7581 69.8927 21.6097 69.5166 21.6094Z" fill="white"/>
<path d="M69.4608 24.2052C70.1211 24.2052 70.6564 23.674 70.6564 23.0186C70.6564 22.3633 70.1211 21.832 69.4608 21.832C68.8004 21.832 68.2651 22.3633 68.2651 23.0186C68.2651 23.674 68.8004 24.2052 69.4608 24.2052Z" fill="#637381"/>
<path d="M69.4609 22.0515C69.6535 22.0514 69.8418 22.108 70.0019 22.2141C70.1621 22.3202 70.287 22.4711 70.3607 22.6476C70.4345 22.8242 70.4538 23.0185 70.4162 23.2059C70.3787 23.3934 70.286 23.5656 70.1498 23.7007C70.0136 23.8359 69.8401 23.9279 69.6513 23.9652C69.4624 24.0024 69.2666 23.9832 69.0887 23.91C68.9108 23.8369 68.7588 23.7129 68.6519 23.554C68.545 23.395 68.4879 23.2082 68.4881 23.0171C68.4882 22.761 68.5907 22.5155 68.7732 22.3345C68.9556 22.1534 69.203 22.0517 69.4609 22.0515ZM69.4609 21.6094C69.1803 21.6094 68.9059 21.692 68.6726 21.8467C68.4392 22.0015 68.2573 22.2215 68.1499 22.4788C68.0426 22.7362 68.0145 23.0194 68.0693 23.2925C68.1241 23.5657 68.2593 23.8166 68.4578 24.0136C68.6563 24.2105 68.9092 24.3446 69.1845 24.3988C69.4597 24.4531 69.7451 24.4252 70.0043 24.3185C70.2636 24.2118 70.4852 24.0312 70.641 23.7996C70.7969 23.5679 70.88 23.2956 70.8799 23.0171C70.8794 22.6438 70.7298 22.2859 70.4637 22.022C70.1977 21.7581 69.8371 21.6097 69.4609 21.6094Z" fill="white"/>
<path d="M69.4051 24.2052C70.0654 24.2052 70.6007 23.674 70.6007 23.0186C70.6007 22.3633 70.0654 21.832 69.4051 21.832C68.7448 21.832 68.2095 22.3633 68.2095 23.0186C68.2095 23.674 68.7448 24.2052 69.4051 24.2052Z" fill="#637381"/>
<path d="M69.4053 22.0515C69.5978 22.0514 69.7861 22.108 69.9463 22.2141C70.1064 22.3202 70.2313 22.4711 70.305 22.6476C70.3788 22.8242 70.3981 23.0185 70.3606 23.2059C70.323 23.3934 70.2303 23.5656 70.0941 23.7007C69.958 23.8359 69.7845 23.9279 69.5956 23.9652C69.4067 24.0024 69.2109 23.9832 69.033 23.91C68.8552 23.8369 68.7031 23.7129 68.5962 23.554C68.4893 23.395 68.4323 23.2082 68.4324 23.0171C68.4325 22.761 68.5351 22.5155 68.7175 22.3345C68.8999 22.1534 69.1473 22.0517 69.4053 22.0515ZM69.4053 21.6094C69.1246 21.6094 68.8502 21.692 68.6169 21.8467C68.3835 22.0015 68.2017 22.2215 68.0943 22.4788C67.9869 22.7362 67.9588 23.0194 68.0136 23.2925C68.0684 23.5657 68.2036 23.8166 68.4021 24.0136C68.6006 24.2105 68.8535 24.3446 69.1288 24.3988C69.4041 24.4531 69.6894 24.4252 69.9487 24.3185C70.2079 24.2118 70.4295 24.0312 70.5853 23.7996C70.7412 23.5679 70.8243 23.2956 70.8242 23.0171C70.8238 22.6438 70.6741 22.2859 70.4081 22.022C70.1421 21.7581 69.7814 21.6097 69.4053 21.6094Z" fill="white"/>
<path d="M69.3494 24.2052C70.0098 24.2052 70.5451 23.674 70.5451 23.0186C70.5451 22.3633 70.0098 21.832 69.3494 21.832C68.6891 21.832 68.1538 22.3633 68.1538 23.0186C68.1538 23.674 68.6891 24.2052 69.3494 24.2052Z" fill="#637381"/>
<path d="M69.3496 22.0515C69.5422 22.0514 69.7305 22.108 69.8906 22.2141C70.0508 22.3202 70.1756 22.4711 70.2494 22.6476C70.3231 22.8242 70.3425 23.0185 70.3049 23.2059C70.2674 23.3934 70.1746 23.5656 70.0385 23.7007C69.9023 23.8359 69.7288 23.9279 69.5399 23.9652C69.3511 24.0024 69.1553 23.9832 68.9774 23.91C68.7995 23.8369 68.6475 23.7129 68.5405 23.554C68.4336 23.395 68.3766 23.2082 68.3767 23.0171C68.3769 22.761 68.4794 22.5155 68.6618 22.3345C68.8443 22.1534 69.0916 22.0517 69.3496 22.0515ZM69.3496 21.6094C69.0689 21.6094 68.7946 21.692 68.5612 21.8467C68.3279 22.0015 68.146 22.2215 68.0386 22.4788C67.9312 22.7362 67.9032 23.0194 67.958 23.2925C68.0128 23.5657 68.148 23.8166 68.3465 24.0136C68.545 24.2105 68.7978 24.3446 69.0731 24.3988C69.3484 24.4531 69.6337 24.4252 69.893 24.3185C70.1523 24.2118 70.3738 24.0312 70.5297 23.7996C70.6855 23.5679 70.7687 23.2956 70.7685 23.0171C70.7681 22.6438 70.6184 22.2859 70.3524 22.022C70.0864 21.7581 69.7257 21.6097 69.3496 21.6094Z" fill="white"/>
<path d="M69.2938 24.2052C69.9541 24.2052 70.4894 23.674 70.4894 23.0186C70.4894 22.3633 69.9541 21.832 69.2938 21.832C68.6334 21.832 68.0981 22.3633 68.0981 23.0186C68.0981 23.674 68.6334 24.2052 69.2938 24.2052Z" fill="#637381"/>
<path d="M69.2937 22.0515C69.4863 22.0514 69.6745 22.108 69.8347 22.2141C69.9949 22.3202 70.1197 22.4711 70.1935 22.6476C70.2672 22.8242 70.2865 23.0185 70.249 23.2059C70.2115 23.3934 70.1187 23.5656 69.9826 23.7007C69.8464 23.8359 69.6729 23.9279 69.484 23.9652C69.2951 24.0024 69.0994 23.9832 68.9215 23.91C68.7436 23.8369 68.5916 23.7129 68.4846 23.554C68.3777 23.395 68.3207 23.2082 68.3208 23.0171C68.321 22.761 68.4235 22.5155 68.6059 22.3345C68.7883 22.1534 69.0357 22.0517 69.2937 22.0515ZM69.2937 21.6094C69.013 21.6094 68.7387 21.692 68.5053 21.8467C68.272 22.0015 68.0901 22.2215 67.9827 22.4788C67.8753 22.7362 67.8473 23.0194 67.9021 23.2925C67.9569 23.5657 68.0921 23.8166 68.2906 24.0136C68.489 24.2105 68.7419 24.3446 69.0172 24.3988C69.2925 24.4531 69.5778 24.4252 69.8371 24.3185C70.0963 24.2118 70.3179 24.0312 70.4738 23.7996C70.6296 23.5679 70.7127 23.2956 70.7126 23.0171C70.7122 22.6438 70.5625 22.2859 70.2965 22.022C70.0305 21.7581 69.6698 21.6097 69.2937 21.6094Z" fill="white"/>
<path d="M69.2381 24.2052C69.8984 24.2052 70.4337 23.674 70.4337 23.0186C70.4337 22.3633 69.8984 21.832 69.2381 21.832C68.5778 21.832 68.0425 22.3633 68.0425 23.0186C68.0425 23.674 68.5778 24.2052 69.2381 24.2052Z" fill="#637381"/>
<path d="M69.238 22.0515C69.4306 22.0514 69.6189 22.108 69.779 22.2141C69.9392 22.3202 70.0641 22.4711 70.1378 22.6476C70.2116 22.8242 70.2309 23.0185 70.1933 23.2059C70.1558 23.3934 70.0631 23.5656 69.9269 23.7007C69.7907 23.8359 69.6172 23.9279 69.4284 23.9652C69.2395 24.0024 69.0437 23.9832 68.8658 23.91C68.6879 23.8369 68.5359 23.7129 68.429 23.554C68.3221 23.395 68.265 23.2082 68.2652 23.0171C68.2653 22.761 68.3678 22.5155 68.5503 22.3345C68.7327 22.1534 68.9801 22.0517 69.238 22.0515ZM69.238 21.6094C68.9574 21.6094 68.683 21.692 68.4497 21.8467C68.2163 22.0015 68.0344 22.2215 67.927 22.4788C67.8197 22.7362 67.7916 23.0194 67.8464 23.2925C67.9012 23.5657 68.0364 23.8166 68.2349 24.0136C68.4334 24.2105 68.6863 24.3446 68.9615 24.3988C69.2368 24.4531 69.5222 24.4252 69.7814 24.3185C70.0407 24.2118 70.2623 24.0312 70.4181 23.7996C70.5739 23.5679 70.6571 23.2956 70.657 23.0171C70.6565 22.6438 70.5069 22.2859 70.2408 22.022C69.9748 21.7581 69.6142 21.6097 69.238 21.6094Z" fill="white"/>
<path d="M69.1824 24.2052C69.8428 24.2052 70.3781 23.674 70.3781 23.0186C70.3781 22.3633 69.8428 21.832 69.1824 21.832C68.5221 21.832 67.9868 22.3633 67.9868 23.0186C67.9868 23.674 68.5221 24.2052 69.1824 24.2052Z" fill="#637381"/>
<path d="M69.1824 22.0515C69.3749 22.0514 69.5632 22.108 69.7234 22.2141C69.8835 22.3202 70.0084 22.4711 70.0821 22.6476C70.1559 22.8242 70.1752 23.0185 70.1377 23.2059C70.1001 23.3934 70.0074 23.5656 69.8712 23.7007C69.7351 23.8359 69.5616 23.9279 69.3727 23.9652C69.1838 24.0024 68.988 23.9832 68.8101 23.91C68.6323 23.8369 68.4802 23.7129 68.3733 23.554C68.2664 23.395 68.2094 23.2082 68.2095 23.0171C68.2096 22.761 68.3122 22.5155 68.4946 22.3345C68.677 22.1534 68.9244 22.0517 69.1824 22.0515ZM69.1824 21.6094C68.9017 21.6094 68.6273 21.692 68.394 21.8467C68.1606 22.0015 67.9788 22.2215 67.8714 22.4788C67.764 22.7362 67.7359 23.0194 67.7907 23.2925C67.8455 23.5657 67.9807 23.8166 68.1792 24.0136C68.3777 24.2105 68.6306 24.3446 68.9059 24.3988C69.1812 24.4531 69.4665 24.4252 69.7258 24.3185C69.985 24.2118 70.2066 24.0312 70.3624 23.7996C70.5183 23.5679 70.6014 23.2956 70.6013 23.0171C70.6009 22.6438 70.4512 22.2859 70.1852 22.022C69.9192 21.7581 69.5585 21.6097 69.1824 21.6094Z" fill="white"/>
<path d="M69.1268 24.2052C69.7871 24.2052 70.3224 23.674 70.3224 23.0186C70.3224 22.3633 69.7871 21.832 69.1268 21.832C68.4665 21.832 67.9312 22.3633 67.9312 23.0186C67.9312 23.674 68.4665 24.2052 69.1268 24.2052Z" fill="#637381"/>
<path d="M69.1267 22.0515C69.3193 22.0514 69.5076 22.108 69.6677 22.2141C69.8279 22.3202 69.9527 22.4711 70.0265 22.6476C70.1002 22.8242 70.1196 23.0185 70.082 23.2059C70.0445 23.3934 69.9517 23.5656 69.8156 23.7007C69.6794 23.8359 69.5059 23.9279 69.317 23.9652C69.1282 24.0024 68.9324 23.9832 68.7545 23.91C68.5766 23.8369 68.4246 23.7129 68.3176 23.554C68.2107 23.395 68.1537 23.2082 68.1538 23.0171C68.154 22.761 68.2565 22.5155 68.4389 22.3345C68.6214 22.1534 68.8687 22.0517 69.1267 22.0515ZM69.1267 21.6094C68.846 21.6094 68.5717 21.692 68.3383 21.8467C68.105 22.0015 67.9231 22.2215 67.8157 22.4788C67.7083 22.7362 67.6803 23.0194 67.7351 23.2925C67.7899 23.5657 67.9251 23.8166 68.1236 24.0136C68.3221 24.2105 68.5749 24.3446 68.8502 24.3988C69.1255 24.4531 69.4108 24.4252 69.6701 24.3185C69.9294 24.2118 70.1509 24.0312 70.3068 23.7996C70.4626 23.5679 70.5457 23.2956 70.5456 23.0171C70.5452 22.6438 70.3955 22.2859 70.1295 22.022C69.8635 21.7581 69.5028 21.6097 69.1267 21.6094Z" fill="white"/>
<path d="M69.1267 23.9858C69.664 23.9858 70.0996 23.5535 70.0996 23.0202C70.0996 22.487 69.664 22.0547 69.1267 22.0547C68.5894 22.0547 68.1538 22.487 68.1538 23.0202C68.1538 23.5535 68.5894 23.9858 69.1267 23.9858Z" fill="#637381"/>
<path d="M80.2716 10.6848V15.482C80.2706 15.8854 80.1086 16.2719 79.821 16.557C79.5335 16.8421 79.1438 17.0024 78.7374 17.003C78.5918 17.0035 78.4476 16.9754 78.313 16.9203C78.1784 16.8652 78.0562 16.7842 77.9533 16.6819C77.9146 16.6429 77.8789 16.6012 77.8464 16.557C77.7045 16.3678 77.6281 16.138 77.6287 15.9021V8.44531H75.6885V15.9021C75.6885 16.2995 75.7673 16.6929 75.9206 17.0601C76.0738 17.4272 76.2984 17.7608 76.5815 18.0417C77.1533 18.6092 77.9288 18.928 78.7374 18.928C79.2699 18.9274 79.795 18.8045 80.2716 18.5688V22.5845C80.2721 23.0427 80.0923 23.483 79.7704 23.8115C80.4858 23.5509 81.1035 23.0788 81.5399 22.4588C81.9764 21.8388 82.2107 21.1009 82.2112 20.3445V10.6848H80.2716Z" fill="#637381"/>
<path d="M96.712 21.126C95.9933 21.126 95.326 21 94.71 20.748C94.094 20.4867 93.5573 20.1273 93.1 19.67C92.6427 19.2127 92.2833 18.676 92.022 18.06C91.77 17.444 91.644 16.7767 91.644 16.058C91.644 15.3393 91.77 14.672 92.022 14.056C92.2833 13.44 92.6427 12.908 93.1 12.46C93.5573 12.0027 94.094 11.648 94.71 11.396C95.326 11.1347 95.9933 11.004 96.712 11.004C97.4307 11.004 98.098 11.1347 98.714 11.396C99.33 11.648 99.862 12.0027 100.31 12.46C100.767 12.908 101.122 13.44 101.374 14.056C101.635 14.672 101.766 15.3393 101.766 16.058C101.766 16.7767 101.635 17.444 101.374 18.06C101.122 18.676 100.767 19.2127 100.31 19.67C99.862 20.1273 99.33 20.4867 98.714 20.748C98.098 21 97.4307 21.126 96.712 21.126ZM96.712 20.454C97.3373 20.454 97.9113 20.3467 98.434 20.132C98.966 19.908 99.428 19.5953 99.82 19.194C100.212 18.7927 100.515 18.326 100.73 17.794C100.954 17.262 101.066 16.6833 101.066 16.058C101.066 15.4327 100.954 14.854 100.73 14.322C100.515 13.79 100.212 13.328 99.82 12.936C99.428 12.5347 98.966 12.2267 98.434 12.012C97.9113 11.788 97.3373 11.676 96.712 11.676C96.0867 11.676 95.508 11.788 94.976 12.012C94.444 12.2267 93.982 12.5347 93.59 12.936C93.198 13.328 92.89 13.79 92.666 14.322C92.4513 14.854 92.344 15.4327 92.344 16.058C92.344 16.6833 92.4513 17.262 92.666 17.794C92.89 18.326 93.198 18.7927 93.59 19.194C93.982 19.5953 94.444 19.908 94.976 20.132C95.508 20.3467 96.0867 20.454 96.712 20.454ZM96.922 19.082C96.0073 19.082 95.284 18.8067 94.752 18.256C94.22 17.696 93.954 16.954 93.954 16.03C93.954 15.106 94.22 14.378 94.752 13.846C95.284 13.314 96.0073 13.048 96.922 13.048C97.2207 13.048 97.524 13.0947 97.832 13.188C98.14 13.272 98.42 13.398 98.672 13.566C98.784 13.6313 98.8587 13.7153 98.896 13.818C98.9333 13.9113 98.9427 14.0093 98.924 14.112C98.9053 14.2053 98.8633 14.2893 98.798 14.364C98.742 14.4293 98.6627 14.4713 98.56 14.49C98.4667 14.5087 98.3593 14.4807 98.238 14.406C98.0327 14.2753 97.8273 14.182 97.622 14.126C97.4167 14.07 97.216 14.042 97.02 14.042C96.4413 14.042 95.9887 14.2193 95.662 14.574C95.3447 14.9193 95.186 15.4093 95.186 16.044C95.186 16.6693 95.3447 17.1687 95.662 17.542C95.9887 17.906 96.4413 18.088 97.02 18.088C97.216 18.088 97.4167 18.06 97.622 18.004C97.8273 17.948 98.0373 17.8547 98.252 17.724C98.4013 17.64 98.5273 17.6213 98.63 17.668C98.742 17.7053 98.8213 17.78 98.868 17.892C98.924 18.004 98.938 18.1207 98.91 18.242C98.882 18.3633 98.8073 18.466 98.686 18.55C98.434 18.718 98.1493 18.8487 97.832 18.942C97.524 19.0353 97.2207 19.082 96.922 19.082ZM107.941 21C107.689 21 107.507 20.944 107.395 20.832C107.283 20.7107 107.227 20.5473 107.227 20.342C107.227 20.2113 107.26 20.0853 107.325 19.964C107.391 19.8427 107.484 19.7167 107.605 19.586L110.587 16.394C111.045 15.9087 111.371 15.4653 111.567 15.064C111.773 14.6533 111.875 14.2427 111.875 13.832C111.875 13.3093 111.717 12.9127 111.399 12.642C111.082 12.3713 110.615 12.236 109.999 12.236C109.626 12.236 109.267 12.292 108.921 12.404C108.576 12.516 108.231 12.698 107.885 12.95C107.745 13.0433 107.615 13.0853 107.493 13.076C107.372 13.0667 107.265 13.02 107.171 12.936C107.087 12.852 107.031 12.7493 107.003 12.628C106.975 12.5067 106.98 12.3807 107.017 12.25C107.055 12.1193 107.143 12.0073 107.283 11.914C107.666 11.6247 108.109 11.4007 108.613 11.242C109.117 11.0833 109.631 11.004 110.153 11.004C110.835 11.004 111.409 11.1113 111.875 11.326C112.351 11.5313 112.711 11.8347 112.953 12.236C113.196 12.6373 113.317 13.1273 113.317 13.706C113.317 14.098 113.252 14.4807 113.121 14.854C113 15.2273 112.809 15.61 112.547 16.002C112.295 16.3847 111.964 16.7907 111.553 17.22L108.725 20.188V19.782H113.177C113.383 19.782 113.541 19.8333 113.653 19.936C113.765 20.0387 113.821 20.188 113.821 20.384C113.821 20.58 113.765 20.734 113.653 20.846C113.541 20.9487 113.383 21 113.177 21H107.941ZM118.702 21.126C117.554 21.126 116.677 20.692 116.07 19.824C115.473 18.9467 115.174 17.6913 115.174 16.058C115.174 14.9473 115.309 14.0187 115.58 13.272C115.851 12.5253 116.247 11.9607 116.77 11.578C117.293 11.1953 117.937 11.004 118.702 11.004C119.859 11.004 120.737 11.4333 121.334 12.292C121.931 13.1413 122.23 14.392 122.23 16.044C122.23 17.136 122.095 18.06 121.824 18.816C121.553 19.572 121.157 20.146 120.634 20.538C120.111 20.93 119.467 21.126 118.702 21.126ZM118.702 19.922C119.421 19.922 119.948 19.6093 120.284 18.984C120.629 18.3493 120.802 17.3693 120.802 16.044C120.802 14.7093 120.629 13.7387 120.284 13.132C119.948 12.516 119.421 12.208 118.702 12.208C117.993 12.208 117.465 12.516 117.12 13.132C116.775 13.7387 116.602 14.7093 116.602 16.044C116.602 17.3693 116.775 18.3493 117.12 18.984C117.465 19.6093 117.993 19.922 118.702 19.922ZM124.73 21C124.478 21 124.296 20.944 124.184 20.832C124.072 20.7107 124.016 20.5473 124.016 20.342C124.016 20.2113 124.049 20.0853 124.114 19.964C124.18 19.8427 124.273 19.7167 124.394 19.586L127.376 16.394C127.834 15.9087 128.16 15.4653 128.356 15.064C128.562 14.6533 128.664 14.2427 128.664 13.832C128.664 13.3093 128.506 12.9127 128.188 12.642C127.871 12.3713 127.404 12.236 126.788 12.236C126.415 12.236 126.056 12.292 125.71 12.404C125.365 12.516 125.02 12.698 124.674 12.95C124.534 13.0433 124.404 13.0853 124.282 13.076C124.161 13.0667 124.054 13.02 123.96 12.936C123.876 12.852 123.82 12.7493 123.792 12.628C123.764 12.5067 123.769 12.3807 123.806 12.25C123.844 12.1193 123.932 12.0073 124.072 11.914C124.455 11.6247 124.898 11.4007 125.402 11.242C125.906 11.0833 126.42 11.004 126.942 11.004C127.624 11.004 128.198 11.1113 128.664 11.326C129.14 11.5313 129.5 11.8347 129.742 12.236C129.985 12.6373 130.106 13.1273 130.106 13.706C130.106 14.098 130.041 14.4807 129.91 14.854C129.789 15.2273 129.598 15.61 129.336 16.002C129.084 16.3847 128.753 16.7907 128.342 17.22L125.514 20.188V19.782H129.966C130.172 19.782 130.33 19.8333 130.442 19.936C130.554 20.0387 130.61 20.188 130.61 20.384C130.61 20.58 130.554 20.734 130.442 20.846C130.33 20.9487 130.172 21 129.966 21H124.73ZM133.125 21C132.873 21 132.691 20.944 132.579 20.832C132.467 20.7107 132.411 20.5473 132.411 20.342C132.411 20.2113 132.444 20.0853 132.509 19.964C132.574 19.8427 132.668 19.7167 132.789 19.586L135.771 16.394C136.228 15.9087 136.555 15.4653 136.751 15.064C136.956 14.6533 137.059 14.2427 137.059 13.832C137.059 13.3093 136.9 12.9127 136.583 12.642C136.266 12.3713 135.799 12.236 135.183 12.236C134.81 12.236 134.45 12.292 134.105 12.404C133.76 12.516 133.414 12.698 133.069 12.95C132.929 13.0433 132.798 13.0853 132.677 13.076C132.556 13.0667 132.448 13.02 132.355 12.936C132.271 12.852 132.215 12.7493 132.187 12.628C132.159 12.5067 132.164 12.3807 132.201 12.25C132.238 12.1193 132.327 12.0073 132.467 11.914C132.85 11.6247 133.293 11.4007 133.797 11.242C134.301 11.0833 134.814 11.004 135.337 11.004C136.018 11.004 136.592 11.1113 137.059 11.326C137.535 11.5313 137.894 11.8347 138.137 12.236C138.38 12.6373 138.501 13.1273 138.501 13.706C138.501 14.098 138.436 14.4807 138.305 14.854C138.184 15.2273 137.992 15.61 137.731 16.002C137.479 16.3847 137.148 16.7907 136.737 17.22L133.909 20.188V19.782H138.361C138.566 19.782 138.725 19.8333 138.837 19.936C138.949 20.0387 139.005 20.188 139.005 20.384C139.005 20.58 138.949 20.734 138.837 20.846C138.725 20.9487 138.566 21 138.361 21H133.125Z" fill="#637381"/>
</svg>
