<svg width="181" height="65" viewBox="0 0 181 65" fill="none" xmlns="http://www.w3.org/2000/svg">
<path d="M30.7664 54.7165L30.7104 54.6857L30.8144 54.8684V54.8022L30.7664 54.7165Z" fill="#B4D8E1"/>
<path d="M24.1696 42.9733L24.1147 42.9436L24.2107 43.1138V43.0475L24.1696 42.9733Z" fill="#B4D8E1"/>
<path d="M17.5726 31.2312L17.52 31.2026L17.6034 31.3511V31.2849L17.5726 31.2312Z" fill="#B4D8E1"/>
<path d="M14.8818 29.7441L13.9887 29.2496C12.81 28.5986 11.7045 28.5495 10.8764 29.108C10.0484 29.6665 9.58355 30.7629 9.58241 32.1997C9.58241 33.8204 10.0998 35.5804 10.9404 37.1439C10.9117 37.158 10.8839 37.1736 10.857 37.1907C10.0221 37.7435 9.56185 38.8411 9.55957 40.2836C9.55957 43.6643 11.8027 47.6582 14.5677 49.1921L30.8109 58.1714V58.1052L28.0721 53.2226L14.5723 45.7635C13.3514 45.0896 12.3589 43.3228 12.36 41.8312C12.36 41.3081 12.5279 40.9095 12.8329 40.7062C13.1378 40.5029 13.5375 40.5223 13.9636 40.7587L14.5883 41.1013L24.206 46.419V46.3414L21.4764 41.4828L14.5929 37.6773C13.3719 37.0023 12.3806 35.24 12.3829 33.7461C12.3829 33.2242 12.5485 32.8233 12.8546 32.6211C13.1607 32.419 13.5558 32.435 13.9841 32.6714L17.5989 34.6701V34.581L14.8818 29.7419" fill="#B4D8E1"/>
<path d="M27.8424 28.8168C26.5141 28.0835 25.308 28.055 24.4103 28.5883C24.3852 28.5438 24.3635 28.497 24.3372 28.4513V28.4444C24.1343 28.0863 23.9092 27.7411 23.6634 27.4108C23.4841 27.1664 23.3002 26.9357 23.1083 26.7187C22.5749 26.0975 21.9391 25.5722 21.2284 25.1654C20.8895 24.972 20.5292 24.8187 20.1548 24.7086C20.1004 24.6912 20.0451 24.6767 19.9892 24.6652C19.8877 24.6393 19.7847 24.6195 19.6808 24.6058C19.6293 24.5943 19.577 24.5867 19.5244 24.5829C19.4661 24.5761 19.4102 24.5704 19.3496 24.5692C19.2891 24.5681 19.2046 24.5624 19.1349 24.5692C18.6622 24.5657 18.1976 24.6921 17.7918 24.9347C16.9603 25.4315 16.3904 26.4195 16.2465 27.79C16.2351 27.8757 16.2282 27.967 16.2237 28.0573C16.218 28.1064 16.2168 28.1578 16.2134 28.2069C16.2134 28.3074 16.2065 28.4113 16.2065 28.5164V28.8008L17.5771 31.2312L17.6079 31.2849L18.9784 33.7176L19.0104 33.7347V30.0651C19.0106 29.8909 19.0255 29.7171 19.055 29.5454C19.0781 29.4047 19.1164 29.2668 19.1692 29.1343C19.2343 28.9796 19.3229 28.8359 19.4319 28.7083C19.4559 28.6786 19.4855 28.6534 19.513 28.6249C19.5574 28.583 19.6051 28.5448 19.6557 28.5107C20.0566 28.2446 20.6105 28.2446 21.2227 28.5826C21.3911 28.6774 21.5472 28.7925 21.6875 28.9253C21.7907 29.0183 21.8862 29.1195 21.9731 29.2279C22.1154 29.3996 22.2412 29.5843 22.3488 29.7796C22.6406 30.2785 22.8016 30.843 22.8171 31.4208L22.8582 31.4448C22.8315 31.6852 22.8174 31.9269 22.8159 32.1689L22.8057 40.5554L24.1636 42.9687L24.2048 43.043L25.565 45.4563L25.6084 45.4802L25.6221 33.7222C25.6215 33.6096 25.6269 33.4972 25.6381 33.3852C25.6518 33.2813 25.6689 33.1808 25.6906 33.0871C25.7162 32.9779 25.7517 32.8712 25.7969 32.7685C25.837 32.6739 25.8859 32.5833 25.9431 32.4978C25.9786 32.4461 26.0168 32.3962 26.0573 32.3482C26.1207 32.2815 26.1912 32.2217 26.2674 32.17C26.6706 31.9039 27.2211 31.9028 27.8321 32.2408C27.9422 32.303 28.0476 32.3732 28.1473 32.451C28.2527 32.5368 28.3523 32.6295 28.4454 32.7285C28.5954 32.8875 28.73 33.0604 28.8474 33.2447C28.8714 33.2836 28.8977 33.3258 28.924 33.3727L28.9628 33.4355C29.0389 33.5663 29.1061 33.7022 29.1638 33.8421C29.2208 33.9788 29.2696 34.1187 29.31 34.2612C29.3485 34.3975 29.379 34.536 29.4014 34.6758C29.4212 34.8089 29.4311 34.9433 29.4311 35.0778L29.4722 35.1007C29.4453 35.3415 29.4316 35.5836 29.4311 35.8259L29.4116 52.3112L30.7605 54.7097L30.8084 54.7953L32.1527 57.1938L32.2087 57.2246L32.2315 36.6277C32.2315 35.2366 31.8055 33.6879 31.0186 32.2465C30.9935 32.2009 30.9718 32.1552 30.9444 32.1083C30.8164 31.8799 30.6794 31.6515 30.5366 31.4436C30.3939 31.2358 30.2477 31.0211 30.0935 30.8246C30.0307 30.7435 29.9701 30.6693 29.9073 30.5962C29.6637 30.2994 29.4 30.0197 29.1181 29.759C28.7297 29.3964 28.2995 29.0813 27.8367 28.8202" fill="#B4D8E1"/>
<path d="M50.8696 17.8125L50.8125 17.8422L51.0215 17.8433L50.969 17.8136L50.8696 17.8125Z" fill="#66B1C1"/>
<path d="M37.4282 17.656L37.3711 17.6846L37.5664 17.6868L37.5116 17.6571L37.4282 17.656Z" fill="#66B1C1"/>
<path d="M23.9865 17.4995L23.9316 17.5269L24.1018 17.5292L24.0481 17.4995H23.9865Z" fill="#66B1C1"/>
<path d="M21.1976 18.9204L20.2714 19.3921C19.0505 20.0146 18.3618 20.8506 18.3298 21.746C18.2978 22.6414 18.9237 23.4946 20.0943 24.1444C21.4158 24.8743 23.1552 25.2626 24.9232 25.3117C24.9182 25.34 24.9147 25.3686 24.9129 25.3974C24.8752 26.2951 25.5 27.1459 26.6752 27.7958C29.4311 29.3194 34.0053 29.3696 36.8708 27.91L53.7078 19.3316L53.6542 19.3019L48.0761 19.2379L34.0841 26.3659C32.8186 27.01 30.7971 26.9872 29.5807 26.3145C29.1536 26.0792 28.9274 25.7697 28.94 25.443C28.9526 25.1164 29.2027 24.8126 29.6447 24.5864L30.2923 24.2575L40.2618 19.1774L40.1989 19.142L34.6369 19.078L27.5009 22.7145C26.2366 23.3587 24.2174 23.3358 22.9999 22.6631C22.575 22.4278 22.3454 22.1183 22.3592 21.7905C22.3729 21.4628 22.6184 21.1612 23.0616 20.9351L26.8088 19.0266L26.7357 18.9855L21.1976 18.9204Z" fill="#66B1C1"/>
<path d="M28.0309 8.43687C26.6547 9.13698 25.926 10.0621 25.8335 11.0021H25.6793H25.6702C25.2553 10.9956 24.8405 11.0124 24.4275 11.0523C24.1249 11.082 23.8279 11.1208 23.539 11.1665C22.7166 11.3025 21.9188 11.5592 21.1714 11.9283C20.8179 12.1036 20.4838 12.3152 20.1743 12.5599C20.1286 12.5953 20.0807 12.6319 20.0407 12.6741C19.9608 12.7412 19.8846 12.8125 19.8123 12.8877C19.7715 12.9229 19.7333 12.9611 19.6981 13.0019C19.6581 13.0442 19.6193 13.0864 19.5838 13.1321C19.5484 13.1778 19.4948 13.2463 19.4548 13.2954C19.1882 13.6432 19.024 14.0586 18.9808 14.4947C18.8986 15.3649 19.3714 16.2512 20.4085 16.9822C20.4713 17.029 20.5421 17.0747 20.6129 17.1204L20.7271 17.1946C20.8059 17.2437 20.8904 17.2917 20.9761 17.3397L21.2045 17.4676L23.9878 17.4984H24.0495L26.834 17.5304L26.8682 17.5133L23.8759 15.8595C23.7359 15.7817 23.6029 15.6919 23.4785 15.5911C23.3794 15.509 23.2904 15.4155 23.2135 15.3124C23.1254 15.1935 23.0596 15.0596 23.0193 14.9172C23.0106 14.8841 23.0037 14.8506 22.9988 14.8167C22.9914 14.7634 22.9891 14.7095 22.9919 14.6557C23.009 14.224 23.3345 13.7945 23.9673 13.4713C24.1433 13.3819 24.3287 13.3122 24.5201 13.2635C24.6559 13.2259 24.794 13.1973 24.9335 13.1778C25.1557 13.1445 25.3804 13.13 25.6051 13.1344C26.1651 13.1278 26.7183 13.2567 27.2177 13.5101L27.2623 13.4873C27.4436 13.618 27.6324 13.7382 27.8276 13.8471L34.6632 17.6252L37.4271 17.6572H37.5104L40.2698 17.688L40.3155 17.6652L30.7309 12.3669C30.6394 12.3172 30.551 12.2623 30.4659 12.2024C30.3921 12.1479 30.3212 12.0896 30.2535 12.0277C30.1796 11.9585 30.113 11.882 30.0547 11.7993C30.0022 11.7251 29.957 11.6459 29.92 11.5628C29.8996 11.5106 29.8824 11.4572 29.8686 11.4029C29.8514 11.323 29.8437 11.2414 29.8457 11.1597C29.8651 10.7268 30.1884 10.2985 30.82 9.97644C30.9351 9.91886 31.0537 9.86851 31.1751 9.82568C31.3068 9.78196 31.4411 9.74648 31.5772 9.71946C31.7934 9.67421 32.0131 9.64709 32.2339 9.63837C32.2796 9.63837 32.3298 9.63837 32.3824 9.63837H32.4566C32.6066 9.63764 32.7565 9.64642 32.9055 9.66464C33.0539 9.68292 33.1967 9.70804 33.3337 9.73888C33.4664 9.76944 33.5972 9.80757 33.7255 9.85309C33.8435 9.89706 33.958 9.94974 34.0681 10.0107L34.1104 9.989C34.2938 10.1193 34.4844 10.239 34.6814 10.3476L48.1172 17.7714L50.8652 17.8034H50.9645L53.7056 17.8365L53.7627 17.8068L36.9737 8.52595C35.8407 7.89893 34.3262 7.53574 32.6907 7.49805C32.6371 7.49805 32.5879 7.49805 32.5343 7.49805C32.2716 7.49805 32.0089 7.49805 31.7531 7.51632C31.4972 7.53459 31.238 7.55058 30.9878 7.58142C30.8851 7.59398 30.7891 7.60769 30.6909 7.62254C30.3058 7.67912 29.9245 7.75845 29.5488 7.8601C29.0252 7.99754 28.5173 8.18891 28.0332 8.43116" fill="#66B1C1"/>
<path d="M54.5908 44.0641L54.5337 44.0938L54.6411 44.1635V44.0983L54.5908 44.0641Z" fill="#007E9A"/>
<path d="M47.7562 39.4922L47.7002 39.5207L47.7996 39.587V39.5207L47.7562 39.4922Z" fill="#007E9A"/>
<path d="M40.923 34.9203L40.8682 34.9477L40.9538 35.0071V34.9408L40.923 34.9203Z" fill="#007E9A"/>
<path d="M38.135 36.34L37.2088 36.8117C35.989 37.4342 34.8435 38.5763 33.9858 40.0245C33.128 41.4727 32.6461 43.0659 32.6449 44.4959C32.6449 46.1108 33.1806 47.3021 34.052 47.9508C34.0234 47.9965 33.9926 48.0399 33.9663 48.0867C33.1006 49.5372 32.6244 51.1247 32.6221 52.5615C32.6221 55.9296 34.9463 57.4806 37.8107 56.021L54.6374 47.4471V47.382L51.8004 45.4861L37.8141 52.6117C36.5509 53.2559 35.5219 52.5695 35.523 51.0836C35.5401 50.5068 35.7087 49.9447 36.0119 49.4538C36.2878 48.9638 36.6937 48.5594 37.1848 48.2854L37.8312 47.9565L47.795 42.8786V42.8021L44.9672 40.9108L37.8358 44.5427C36.5715 45.1869 35.5447 44.5016 35.5516 43.0134C35.5683 42.4373 35.7369 41.8758 36.0404 41.3859C36.3149 40.8959 36.7202 40.4917 37.2111 40.2186L40.9561 38.3102V38.2211L38.1408 36.3354" fill="#007E9A"/>
<path d="M51.5605 21.4491C50.19 22.1503 48.9336 23.4226 48.0051 24.9257C47.98 24.9074 47.9571 24.8857 47.9297 24.8674C47.7184 24.7231 47.4839 24.6161 47.2365 24.551C47.05 24.5003 46.8585 24.47 46.6654 24.4608C46.0635 24.4311 45.4034 24.5922 44.7181 24.9416C44.3255 25.1427 43.9527 25.3802 43.6045 25.6509C43.5474 25.6932 43.4903 25.7377 43.4332 25.7857C43.319 25.8725 43.2185 25.9638 43.1134 26.0586C43.0586 26.1043 43.0061 26.1534 42.9524 26.2037C42.8987 26.2539 42.8313 26.3179 42.7708 26.3796C42.7103 26.4412 42.6212 26.5292 42.5492 26.608C42.023 27.1607 41.5567 27.7675 41.1581 28.4182C40.2958 29.8093 39.7065 31.406 39.5592 32.9296C39.5466 33.0267 39.5398 33.1249 39.5352 33.2197C39.5295 33.2745 39.5283 33.3259 39.5249 33.3796C39.5192 33.4847 39.5181 33.5909 39.5181 33.6948V33.9781L40.9343 34.9237L40.9651 34.9443L42.3825 35.89L42.4156 35.8728V32.2181C42.4169 32.0291 42.4321 31.8405 42.4613 31.6539C42.4907 31.4712 42.5323 31.2907 42.5858 31.1136C42.66 30.8728 42.7508 30.6373 42.8576 30.409C42.8827 30.353 42.9136 30.2947 42.9421 30.2376C42.9867 30.1497 43.0392 30.0572 43.0895 29.9727C43.5052 29.2748 44.0785 28.6786 44.7124 28.3554C44.8635 28.2755 45.0267 28.2211 45.1955 28.1944C45.2931 28.1784 45.3926 28.1784 45.4902 28.1944C45.63 28.2081 45.7641 28.2572 45.8796 28.3372C46.1926 28.5427 46.365 28.947 46.3639 29.4667L46.4084 29.4439C46.3807 29.6988 46.3658 29.9549 46.3639 30.2114L46.3536 38.5648L47.7618 39.4922L47.8052 39.5208L49.2077 40.4584L49.2534 40.4345L49.2671 28.722C49.2667 28.6042 49.2724 28.4864 49.2843 28.3691C49.298 28.2549 49.3162 28.1316 49.3379 28.0162C49.3686 27.8705 49.4067 27.7264 49.4522 27.5845C49.4967 27.4406 49.5481 27.2967 49.6041 27.1585C49.6429 27.0648 49.6852 26.9723 49.7286 26.8798C49.7959 26.7428 49.8679 26.6069 49.9456 26.4766C50.3636 25.7777 50.9335 25.1826 51.5674 24.8606C51.6719 24.8075 51.7808 24.7636 51.8929 24.7292C51.9939 24.702 52.0978 24.6871 52.2024 24.6847C52.3456 24.6789 52.4883 24.7062 52.6192 24.7646C52.6444 24.7768 52.6706 24.7916 52.698 24.8092L52.738 24.8309C52.8181 24.8806 52.8886 24.9444 52.9459 25.0193C53.0077 25.0985 53.0591 25.1852 53.0989 25.2774C53.1408 25.379 53.1722 25.4847 53.1926 25.5927C53.2143 25.714 53.2246 25.8371 53.2234 25.9604L53.2657 25.9387C53.2405 26.1968 53.2234 26.4527 53.2234 26.7051L53.204 43.1253L54.6008 44.0607L54.6511 44.0949L56.0444 45.028L56.1015 44.9983L56.1244 24.4814C56.1244 23.096 55.6824 22.0178 54.8681 21.4308C54.8418 21.4125 54.8201 21.3908 54.7915 21.3737C54.6592 21.2841 54.5171 21.2102 54.3678 21.1532C54.221 21.0901 54.0679 21.043 53.911 21.0128C53.8459 21.0013 53.7831 20.9911 53.7179 20.9854C53.4455 20.9529 53.1698 20.959 52.8991 21.0036C52.4358 21.0812 51.9878 21.2319 51.5719 21.4502" fill="#007E9A"/>
<path d="M151.044 48.0745H147.377C145.405 48.0725 143.514 47.294 142.12 45.9099C140.725 44.5258 139.941 42.6492 139.938 40.6918V16.9265H143.818V40.6918C143.818 41.6299 144.193 42.5296 144.862 43.1929C145.53 43.8563 146.437 44.229 147.382 44.229H151.048L151.044 48.0745Z" fill="#B4D8E1"/>
<path d="M152.415 48.625C151.92 48.6252 151.436 48.4797 151.024 48.2067C150.612 47.9338 150.291 47.5458 150.101 47.0918C149.911 46.6378 149.862 46.1381 149.958 45.656C150.055 45.174 150.293 44.7311 150.643 44.3835C150.993 44.0358 151.439 43.7991 151.925 43.7031C152.411 43.6071 152.914 43.6563 153.372 43.8443C153.829 44.0324 154.22 44.3508 154.496 44.7595C154.771 45.1682 154.918 45.6486 154.918 46.1401C154.917 46.7988 154.653 47.4303 154.184 47.8961C153.715 48.362 153.079 48.6241 152.415 48.625Z" fill="#B4D8E1"/>
<path d="M152.415 44.2091C152.8 44.2091 153.176 44.3225 153.496 44.5348C153.817 44.7472 154.066 45.049 154.214 45.4021C154.361 45.7553 154.399 46.1438 154.324 46.5187C154.249 46.8935 154.063 47.2378 153.791 47.5079C153.519 47.7781 153.172 47.9621 152.794 48.0365C152.416 48.1109 152.025 48.0725 151.669 47.9261C151.313 47.7797 151.009 47.5318 150.795 47.214C150.582 46.8961 150.468 46.5224 150.468 46.1402C150.468 45.8865 150.518 45.6352 150.616 45.4008C150.714 45.1664 150.857 44.9534 151.038 44.7739C151.219 44.5945 151.434 44.4522 151.67 44.3551C151.906 44.258 152.159 44.208 152.415 44.208V44.2091ZM152.415 43.1027C151.809 43.1024 151.218 43.2804 150.714 43.614C150.211 43.9477 149.818 44.422 149.586 44.977C149.354 45.532 149.294 46.1428 149.412 46.7321C149.53 47.3214 149.821 47.8628 150.249 48.2877C150.677 48.7126 151.222 49.002 151.816 49.1193C152.41 49.2366 153.025 49.1765 153.585 48.9466C154.144 48.7167 154.622 48.3274 154.958 47.8279C155.295 47.3283 155.474 46.741 155.474 46.1402C155.473 45.3351 155.151 44.5631 154.577 43.9937C154.004 43.4243 153.226 43.1038 152.415 43.1027Z" fill="white"/>
<path d="M103.026 44.3672V44.2246H102.884L103.026 44.3672Z" fill="#007E9A"/>
<path d="M93.8643 35.2579V35.1274H93.7329L93.8643 35.2579Z" fill="#007E9A"/>
<path d="M84.6983 26.1463V26.0303H84.5825L84.6983 26.1463Z" fill="#007E9A"/>
<path d="M99.2281 44.2245H80.5247C79.7112 44.2237 78.9312 43.9025 78.356 43.3316C77.7807 42.7607 77.4571 41.9866 77.4563 41.1793C77.4586 40.5962 77.693 40.0377 78.1083 39.6253C78.5236 39.2129 79.0863 38.98 79.6738 38.9774H93.8642V38.8912L90.0774 35.1274H80.5403C79.7274 35.1256 78.9484 34.8041 78.3741 34.2333C77.7998 33.6624 77.4769 32.8888 77.4763 32.0821C77.4766 31.4985 77.7103 30.9389 78.1261 30.5263C78.5419 30.1136 79.1058 29.8816 79.6938 29.8813H84.7057V29.7808L80.929 26.0314H79.6905C78.0737 26.0323 76.5234 26.67 75.38 27.8045C74.2367 28.939 73.5938 30.4775 73.5926 32.0821C73.5947 33.8351 74.272 35.521 75.486 36.7943C75.4481 36.8297 75.4081 36.8617 75.3746 36.8982C74.8038 37.4576 74.3509 38.1243 74.0424 38.8594C73.734 39.5944 73.5762 40.383 73.5781 41.1793C73.5802 43.0074 74.3129 44.76 75.6153 46.0527C76.9178 47.3453 78.6838 48.0725 80.5258 48.0745H103.024V48.0004L99.2281 44.2245Z" fill="#007E9A"/>
<path d="M121.511 18.7073C120.946 18.1444 120.274 17.6983 119.534 17.3947C118.794 17.0911 118.001 16.9362 117.2 16.9388C115.432 16.9392 113.73 17.6116 112.445 18.8179C112.411 18.7814 112.379 18.7416 112.343 18.7073C111.778 18.1454 111.106 17.6998 110.367 17.3963C109.628 17.0928 108.835 16.9373 108.035 16.9388C106.267 16.9391 104.566 17.6116 103.281 18.8179C103.247 18.7814 103.216 18.7416 103.18 18.7073C102.615 18.1451 101.943 17.6995 101.203 17.3959C100.463 17.0924 99.6703 16.937 98.8698 16.9388C97.1017 16.9382 95.4007 17.6108 94.1174 18.8179C94.0829 18.7814 94.0528 18.7427 94.0172 18.7073C93.4521 18.1445 92.7803 17.6984 92.0404 17.3948C91.3006 17.0913 90.5075 16.9363 89.7069 16.9388C87.8653 16.9402 86.0995 17.6667 84.797 18.9588C83.4945 20.2508 82.7616 22.003 82.7593 23.8307V24.1435L86.5917 27.9537H86.6385V23.8296C86.64 23.0227 86.9638 22.2493 87.5391 21.679C88.1143 21.1088 88.8939 20.7882 89.7069 20.7876C89.9983 20.7873 90.2869 20.8441 90.5561 20.9547C90.8254 21.0652 91.07 21.2274 91.276 21.432C91.482 21.6365 91.6453 21.8794 91.7565 22.1466C91.8678 22.4139 91.9249 22.7003 91.9244 22.9895H91.9812C91.9453 23.2681 91.9264 23.5487 91.9244 23.8296V33.2572L95.7424 37.053H95.8048V23.8296C95.8057 23.0231 96.1289 22.2498 96.7035 21.6796C97.2781 21.1093 98.0572 20.7885 98.8698 20.7876C99.1615 20.7866 99.4504 20.8429 99.7201 20.9531C99.9897 21.0634 100.235 21.2256 100.441 21.4303C100.647 21.6349 100.811 21.8781 100.922 22.1457C101.033 22.4133 101.089 22.7001 101.088 22.9895H101.145C101.109 23.2681 101.09 23.5487 101.088 23.8296V42.3665L104.894 46.1491H104.968V23.8296C104.969 23.0227 105.293 22.2493 105.868 21.679C106.443 21.1088 107.223 20.7882 108.036 20.7876C108.327 20.7875 108.616 20.8443 108.885 20.955C109.154 21.0656 109.399 21.2278 109.605 21.4323C109.811 21.6368 109.974 21.8796 110.085 22.1468C110.197 22.414 110.254 22.7004 110.254 22.9895V48.0746H114.111V46.1491H114.134V23.8296C114.135 23.0229 114.459 22.2497 115.034 21.6794C115.609 21.1092 116.388 20.7885 117.201 20.7876C117.493 20.7873 117.781 20.8441 118.051 20.9546C118.32 21.0652 118.565 21.2274 118.771 21.4319C118.977 21.6364 119.14 21.8793 119.252 22.1465C119.363 22.4138 119.42 22.7003 119.42 22.9895V46.1491H119.442V48.0746H123.299V22.9895C123.301 22.1939 123.144 21.4057 122.838 20.6707C122.531 19.9356 122.08 19.2683 121.511 18.7073Z" fill="#007E9A"/>
<path d="M82.7593 27.9559H82.9375L82.7593 27.7791V27.9559Z" fill="#007E9A"/>
<path d="M91.9243 37.053H92.0869L91.9243 36.8905V37.053Z" fill="#007E9A"/>
<path d="M101.087 46.149H101.237L101.087 45.9998V46.149Z" fill="#007E9A"/>
<path d="M89.6767 20.7876C88.8638 20.7885 88.0845 21.1092 87.5095 21.6794C86.9346 22.2496 86.6108 23.0228 86.6094 23.8296V27.8907L86.6751 27.9559H86.7208V23.8296C86.7223 23.0354 87.0362 22.2733 87.5956 21.7055C88.155 21.1377 88.9157 20.8091 89.7157 20.7898L89.6767 20.7876Z" fill="#65B2C1"/>
<path d="M93.9835 18.7051C94.0203 18.7416 94.0515 18.7814 94.0871 18.8157L94.1495 18.7604C94.1328 18.7416 94.1161 18.7228 94.0982 18.7051C93.5332 18.1423 92.8614 17.6961 92.1215 17.3926C91.3817 17.089 90.5885 16.934 89.788 16.9366H89.7334C91.3294 16.9481 92.8565 17.5835 93.9835 18.7051Z" fill="#65B2C1"/>
<path d="M121.593 18.7073C121.028 18.1445 120.356 17.6984 119.616 17.3948C118.876 17.0913 118.083 16.9363 117.282 16.9388C115.514 16.939 113.812 17.6114 112.528 18.8179C112.492 18.7814 112.461 18.7416 112.424 18.7073C111.859 18.1453 111.187 17.6996 110.448 17.3961C109.709 17.0926 108.916 16.9372 108.116 16.9388C106.348 16.9392 104.648 17.6116 103.364 18.8179C103.328 18.7814 103.298 18.7416 103.261 18.7073C102.696 18.145 102.024 17.6993 101.284 17.3958C100.544 17.0922 99.7515 16.9369 98.9511 16.9388H98.8965C100.504 16.9522 102.042 17.5956 103.174 18.729C104.306 19.8623 104.94 21.3937 104.94 22.9895V46.1148L104.974 46.149H105.049V23.8296C105.05 23.0228 105.374 22.2494 105.949 21.6791C106.524 21.1088 107.303 20.7882 108.116 20.7876C108.407 20.7876 108.696 20.8446 108.965 20.9553C109.234 21.066 109.478 21.2282 109.684 21.4327C109.89 21.6372 110.053 21.8799 110.165 22.147C110.276 22.4142 110.333 22.7005 110.333 22.9895V48.0746H114.19V46.149H114.212V23.8296C114.213 23.0227 114.537 22.2493 115.112 21.679C115.688 21.1088 116.467 20.7882 117.28 20.7876C117.572 20.7875 117.86 20.8443 118.129 20.955C118.398 21.0656 118.643 21.2278 118.849 21.4323C119.055 21.6368 119.218 21.8796 119.33 22.1468C119.441 22.414 119.498 22.7004 119.498 22.9895V46.149H119.521V48.0746H123.378V22.9895C123.38 22.194 123.224 21.406 122.917 20.671C122.611 19.9359 122.161 19.2685 121.593 18.7073Z" fill="#65B2C1"/>
<path d="M98.8419 20.7876C98.0288 20.7882 97.2492 21.1088 96.674 21.679C96.0988 22.2493 95.7749 23.0227 95.7734 23.8296V37.0033L95.8236 37.053H95.8859V23.8296C95.8869 23.0354 96.2004 22.2731 96.7597 21.7052C97.319 21.1373 98.0798 20.8088 98.8797 20.7898L98.8419 20.7876Z" fill="#65B2C1"/>
<path d="M163.422 16.8934V40.6919C163.421 42.2045 162.952 43.6804 162.08 44.9204C161.207 46.1603 159.971 47.1046 158.541 47.6258C157.723 47.9252 156.858 48.0775 155.987 48.0757H152.321V44.2246H155.988C156.933 44.2246 157.84 43.852 158.508 43.1886C159.176 42.5253 159.552 41.6256 159.552 40.6875V32.6614C159.298 32.7838 159.038 32.8919 158.772 32.9853C159.274 32.4307 159.551 31.712 159.552 30.9669V16.8934H163.422Z" fill="#B4D8E1"/>
<path d="M136.422 18.6841C135.857 18.1214 135.184 17.6754 134.444 17.3719C133.704 17.0683 132.911 16.9133 132.11 16.9156C130.406 16.9163 128.763 17.5409 127.494 18.6698L127.432 18.7261C127.126 19.0048 126.845 19.31 126.593 19.6381C126.551 19.6933 126.508 19.7486 126.466 19.8061C126.403 19.8956 126.339 19.9851 126.279 20.0769C126.219 20.1686 126.168 20.2482 126.121 20.3344C126.055 20.445 125.992 20.5555 125.932 20.6749C125.872 20.7943 125.812 20.9125 125.757 21.0352C125.725 21.1071 125.695 21.18 125.666 21.2563C125.614 21.3801 125.569 21.5061 125.525 21.6343C125.505 21.694 125.483 21.7537 125.464 21.8145C125.407 22.0002 125.353 22.1881 125.318 22.3805C125.307 22.4291 125.299 22.4799 125.29 22.5297C125.26 22.6866 125.236 22.8447 125.217 23.005C125.21 23.0647 125.202 23.1233 125.198 23.183C125.178 23.3897 125.166 23.5986 125.166 23.8108V40.6698C125.166 42.17 125.627 43.6345 126.487 44.8683C127.347 46.1022 128.565 47.047 129.979 47.5772C130.816 47.8921 131.703 48.0528 132.598 48.0514H136.273C136.528 48.0515 136.78 48.0019 137.015 47.9052C137.251 47.8086 137.465 47.6668 137.645 47.4881C137.825 47.3094 137.968 47.0972 138.066 46.8637C138.163 46.6301 138.213 46.3798 138.213 46.127V44.2025L131.692 44.0809C130.934 43.8809 130.263 43.4382 129.785 42.8215C129.306 42.2047 129.045 41.4484 129.044 40.6698V37.9605H131.179C131.207 37.9605 131.233 37.9605 131.261 37.9605C131.289 37.9605 131.313 37.9605 131.339 37.9605H131.439C133.249 37.9145 134.969 37.1694 136.233 35.8839C137.498 34.5984 138.207 32.8739 138.21 31.0775V22.9674C138.212 22.1717 138.055 21.3834 137.748 20.6483C137.441 19.9131 136.991 19.2455 136.422 18.6841ZM134.327 31.073C134.327 31.8428 134.033 32.5839 133.503 33.1464C132.974 33.7088 132.249 34.0507 131.475 34.1028V34.126H129.044V24.5702V23.8119C129.045 23.0048 129.368 22.2311 129.944 21.6607C130.519 21.0903 131.299 20.77 132.112 20.77C132.403 20.7687 132.692 20.8247 132.961 20.9347C133.23 21.0448 133.474 21.2067 133.68 21.4111C133.777 21.5059 133.863 21.6104 133.939 21.7228C134.195 22.0891 134.331 22.5248 134.33 22.9707V28.2168L134.327 31.073Z" fill="#65B2C1"/>
<path d="M138.478 48.4095C139.799 48.4095 140.869 47.347 140.869 46.0363C140.869 44.7256 139.799 43.6631 138.478 43.6631C137.158 43.6631 136.087 44.7256 136.087 46.0363C136.087 47.347 137.158 48.4095 138.478 48.4095Z" fill="#27AAE1"/>
<path d="M138.478 44.1052C138.864 44.105 139.24 44.2182 139.561 44.4304C139.881 44.6426 140.131 44.9444 140.278 45.2975C140.426 45.6506 140.464 46.0392 140.389 46.4141C140.314 46.789 140.129 47.1334 139.856 47.4037C139.584 47.674 139.237 47.858 138.859 47.9325C138.481 48.007 138.09 47.9687 137.734 47.8223C137.378 47.6759 137.074 47.4281 136.86 47.1102C136.647 46.7923 136.533 46.4185 136.533 46.0363C136.533 45.5242 136.738 45.0332 137.103 44.6712C137.468 44.3091 137.963 44.1055 138.478 44.1052ZM138.478 43.2209C137.917 43.2209 137.368 43.3862 136.902 43.6957C136.435 44.0052 136.071 44.4451 135.857 44.9599C135.642 45.4746 135.586 46.0409 135.695 46.5873C135.805 47.1337 136.075 47.6355 136.472 48.0293C136.869 48.4232 137.375 48.6913 137.926 48.7999C138.476 48.9084 139.047 48.8525 139.565 48.6392C140.084 48.4258 140.527 48.0647 140.839 47.6014C141.15 47.138 141.317 46.5934 141.316 46.0363C141.315 45.2897 141.016 44.574 140.484 44.0461C139.952 43.5183 139.231 43.2215 138.478 43.2209Z" fill="white"/>
<path d="M138.367 48.4095C139.687 48.4095 140.758 47.347 140.758 46.0363C140.758 44.7256 139.687 43.6631 138.367 43.6631C137.046 43.6631 135.976 44.7256 135.976 46.0363C135.976 47.347 137.046 48.4095 138.367 48.4095Z" fill="#27AAE1"/>
<path d="M138.367 44.1052C138.752 44.105 139.129 44.2182 139.449 44.4304C139.77 44.6426 140.019 44.9444 140.167 45.2975C140.314 45.6506 140.353 46.0392 140.278 46.4141C140.203 46.789 140.017 47.1334 139.745 47.4037C139.473 47.674 139.126 47.858 138.748 47.9325C138.37 48.007 137.979 47.9687 137.623 47.8223C137.267 47.6759 136.963 47.4281 136.749 47.1102C136.535 46.7923 136.421 46.4185 136.421 46.0363C136.422 45.5242 136.627 45.0332 136.992 44.6712C137.356 44.3091 137.851 44.1055 138.367 44.1052ZM138.367 43.2209C137.806 43.2209 137.257 43.3862 136.79 43.6957C136.324 44.0052 135.96 44.4451 135.745 44.9599C135.53 45.4746 135.474 46.0409 135.584 46.5873C135.693 47.1337 135.964 47.6355 136.361 48.0293C136.758 48.4232 137.264 48.6913 137.814 48.7999C138.365 48.9084 138.935 48.8525 139.454 48.6392C139.972 48.4258 140.416 48.0647 140.727 47.6014C141.039 47.138 141.205 46.5934 141.205 46.0363C141.204 45.2897 140.905 44.574 140.373 44.0461C139.841 43.5183 139.119 43.2215 138.367 43.2209Z" fill="white"/>
<path d="M138.256 48.4095C139.576 48.4095 140.647 47.347 140.647 46.0363C140.647 44.7256 139.576 43.6631 138.256 43.6631C136.935 43.6631 135.864 44.7256 135.864 46.0363C135.864 47.347 136.935 48.4095 138.256 48.4095Z" fill="#27AAE1"/>
<path d="M138.256 44.1052C138.641 44.105 139.018 44.2182 139.338 44.4304C139.658 44.6426 139.908 44.9444 140.055 45.2975C140.203 45.6506 140.242 46.0392 140.166 46.4141C140.091 46.789 139.906 47.1334 139.634 47.4037C139.361 47.674 139.014 47.858 138.636 47.9325C138.259 48.007 137.867 47.9687 137.511 47.8223C137.156 47.6759 136.852 47.4281 136.638 47.1102C136.424 46.7923 136.31 46.4185 136.31 46.0363C136.31 45.5242 136.515 45.0332 136.88 44.6712C137.245 44.3091 137.74 44.1055 138.256 44.1052ZM138.256 43.2209C137.695 43.2209 137.146 43.3862 136.679 43.6957C136.212 44.0052 135.849 44.4451 135.634 44.9599C135.419 45.4746 135.363 46.0409 135.473 46.5873C135.582 47.1337 135.853 47.6355 136.25 48.0293C136.647 48.4232 137.152 48.6913 137.703 48.7999C138.253 48.9084 138.824 48.8525 139.343 48.6392C139.861 48.4258 140.304 48.0647 140.616 47.6014C140.928 47.138 141.094 46.5934 141.094 46.0363C141.093 45.2897 140.794 44.574 140.261 44.0461C139.729 43.5183 139.008 43.2215 138.256 43.2209Z" fill="white"/>
<path d="M138.144 48.4095C139.465 48.4095 140.535 47.347 140.535 46.0363C140.535 44.7256 139.465 43.6631 138.144 43.6631C136.824 43.6631 135.753 44.7256 135.753 46.0363C135.753 47.347 136.824 48.4095 138.144 48.4095Z" fill="#27AAE1"/>
<path d="M138.144 44.1052C138.529 44.105 138.906 44.2182 139.226 44.4304C139.546 44.6426 139.796 44.9444 139.944 45.2975C140.091 45.6506 140.13 46.0392 140.055 46.4141C139.98 46.789 139.794 47.1334 139.522 47.4037C139.249 47.674 138.902 47.858 138.525 47.9325C138.147 48.007 137.755 47.9687 137.4 47.8223C137.044 47.6759 136.74 47.4281 136.526 47.1102C136.312 46.7923 136.198 46.4185 136.198 46.0363C136.199 45.5242 136.404 45.0332 136.768 44.6712C137.133 44.3091 137.628 44.1055 138.144 44.1052ZM138.144 43.2209C137.583 43.2209 137.034 43.3862 136.567 43.6957C136.101 44.0052 135.737 44.4451 135.522 44.9599C135.307 45.4746 135.251 46.0409 135.361 46.5873C135.47 47.1337 135.741 47.6355 136.138 48.0293C136.535 48.4232 137.04 48.6913 137.591 48.7999C138.142 48.9084 138.712 48.8525 139.231 48.6392C139.749 48.4258 140.192 48.0647 140.504 47.6014C140.816 47.138 140.982 46.5934 140.982 46.0363C140.981 45.2897 140.682 44.574 140.15 44.0461C139.618 43.5183 138.896 43.2215 138.144 43.2209Z" fill="white"/>
<path d="M138.033 48.4095C139.353 48.4095 140.424 47.347 140.424 46.0363C140.424 44.7256 139.353 43.6631 138.033 43.6631C136.712 43.6631 135.642 44.7256 135.642 46.0363C135.642 47.347 136.712 48.4095 138.033 48.4095Z" fill="#27AAE1"/>
<path d="M138.033 44.1052C138.418 44.105 138.794 44.2182 139.115 44.4304C139.435 44.6426 139.685 44.9444 139.832 45.2975C139.98 45.6506 140.018 46.0392 139.943 46.4141C139.868 46.789 139.683 47.1334 139.41 47.4037C139.138 47.674 138.791 47.858 138.413 47.9325C138.036 48.007 137.644 47.9687 137.288 47.8223C136.932 47.6759 136.628 47.4281 136.415 47.1102C136.201 46.7923 136.087 46.4185 136.087 46.0363C136.087 45.5242 136.292 45.0332 136.657 44.6712C137.022 44.3091 137.517 44.1055 138.033 44.1052ZM138.033 43.2209C137.471 43.2209 136.923 43.3862 136.456 43.6957C135.989 44.0052 135.625 44.4451 135.411 44.9599C135.196 45.4746 135.14 46.0409 135.249 46.5873C135.359 47.1337 135.629 47.6355 136.026 48.0293C136.423 48.4232 136.929 48.6913 137.48 48.7999C138.03 48.9084 138.601 48.8525 139.119 48.6392C139.638 48.4258 140.081 48.0647 140.393 47.6014C140.705 47.138 140.871 46.5934 140.871 46.0363C140.87 45.2897 140.57 44.574 140.038 44.0461C139.506 43.5183 138.785 43.2215 138.033 43.2209Z" fill="white"/>
<path d="M137.922 48.4095C139.242 48.4095 140.313 47.347 140.313 46.0363C140.313 44.7256 139.242 43.6631 137.922 43.6631C136.601 43.6631 135.53 44.7256 135.53 46.0363C135.53 47.347 136.601 48.4095 137.922 48.4095Z" fill="#27AAE1"/>
<path d="M137.921 44.1052C138.307 44.105 138.683 44.2182 139.003 44.4304C139.324 44.6426 139.573 44.9444 139.721 45.2975C139.868 45.6506 139.907 46.0392 139.832 46.4141C139.757 46.789 139.571 47.1334 139.299 47.4037C139.027 47.674 138.68 47.858 138.302 47.9325C137.924 48.007 137.533 47.9687 137.177 47.8223C136.821 47.6759 136.517 47.4281 136.303 47.1102C136.089 46.7923 135.975 46.4185 135.976 46.0363C135.976 45.5242 136.181 45.0332 136.546 44.6712C136.911 44.3091 137.405 44.1055 137.921 44.1052ZM137.921 43.2209C137.36 43.2209 136.811 43.3862 136.345 43.6957C135.878 44.0052 135.514 44.4451 135.299 44.9599C135.085 45.4746 135.029 46.0409 135.138 46.5873C135.248 47.1337 135.518 47.6355 135.915 48.0293C136.312 48.4232 136.818 48.6913 137.368 48.7999C137.919 48.9084 138.49 48.8525 139.008 48.6392C139.527 48.4258 139.97 48.0647 140.281 47.6014C140.593 47.138 140.759 46.5934 140.759 46.0363C140.758 45.2897 140.459 44.574 139.927 44.0461C139.395 43.5183 138.674 43.2215 137.921 43.2209Z" fill="white"/>
<path d="M137.81 48.4095C139.131 48.4095 140.201 47.347 140.201 46.0363C140.201 44.7256 139.131 43.6631 137.81 43.6631C136.49 43.6631 135.419 44.7256 135.419 46.0363C135.419 47.347 136.49 48.4095 137.81 48.4095Z" fill="#27AAE1"/>
<path d="M137.81 44.1052C138.195 44.105 138.572 44.2182 138.892 44.4304C139.212 44.6426 139.462 44.9444 139.61 45.2975C139.757 45.6506 139.796 46.0392 139.721 46.4141C139.646 46.789 139.46 47.1334 139.188 47.4037C138.915 47.674 138.568 47.858 138.191 47.9325C137.813 48.007 137.421 47.9687 137.066 47.8223C136.71 47.6759 136.406 47.4281 136.192 47.1102C135.978 46.7923 135.864 46.4185 135.864 46.0363C135.865 45.5242 136.07 45.0332 136.435 44.6712C136.799 44.3091 137.294 44.1055 137.81 44.1052ZM137.81 43.2209C137.249 43.2209 136.7 43.3862 136.233 43.6957C135.767 44.0052 135.403 44.4451 135.188 44.9599C134.973 45.4746 134.917 46.0409 135.027 46.5873C135.136 47.1337 135.407 47.6355 135.804 48.0293C136.201 48.4232 136.707 48.6913 137.257 48.7999C137.808 48.9084 138.378 48.8525 138.897 48.6392C139.415 48.4258 139.858 48.0647 140.17 47.6014C140.482 47.138 140.648 46.5934 140.648 46.0363C140.647 45.2897 140.348 44.574 139.816 44.0461C139.284 43.5183 138.562 43.2215 137.81 43.2209Z" fill="white"/>
<path d="M137.699 48.4095C139.02 48.4095 140.09 47.347 140.09 46.0363C140.09 44.7256 139.02 43.6631 137.699 43.6631C136.378 43.6631 135.308 44.7256 135.308 46.0363C135.308 47.347 136.378 48.4095 137.699 48.4095Z" fill="#27AAE1"/>
<path d="M137.699 44.1052C138.084 44.105 138.46 44.2182 138.781 44.4304C139.101 44.6426 139.351 44.9444 139.498 45.2975C139.646 45.6506 139.684 46.0392 139.609 46.4141C139.534 46.789 139.349 47.1334 139.076 47.4037C138.804 47.674 138.457 47.858 138.079 47.9325C137.702 48.007 137.31 47.9687 136.954 47.8223C136.598 47.6759 136.294 47.4281 136.081 47.1102C135.867 46.7923 135.753 46.4185 135.753 46.0363C135.753 45.5242 135.958 45.0332 136.323 44.6712C136.688 44.3091 137.183 44.1055 137.699 44.1052ZM137.699 43.2209C137.137 43.2209 136.589 43.3862 136.122 43.6957C135.655 44.0052 135.292 44.4451 135.077 44.9599C134.862 45.4746 134.806 46.0409 134.915 46.5873C135.025 47.1337 135.295 47.6355 135.692 48.0293C136.089 48.4232 136.595 48.6913 137.146 48.7999C137.696 48.9084 138.267 48.8525 138.785 48.6392C139.304 48.4258 139.747 48.0647 140.059 47.6014C140.371 47.138 140.537 46.5934 140.537 46.0363C140.536 45.2897 140.236 44.574 139.704 44.0461C139.172 43.5183 138.451 43.2215 137.699 43.2209Z" fill="white"/>
<path d="M137.588 48.4095C138.908 48.4095 139.979 47.347 139.979 46.0363C139.979 44.7256 138.908 43.6631 137.588 43.6631C136.267 43.6631 135.196 44.7256 135.196 46.0363C135.196 47.347 136.267 48.4095 137.588 48.4095Z" fill="#27AAE1"/>
<path d="M137.587 44.1052C137.973 44.105 138.349 44.2182 138.669 44.4304C138.99 44.6426 139.239 44.9444 139.387 45.2975C139.534 45.6506 139.573 46.0392 139.498 46.4141C139.423 46.789 139.237 47.1334 138.965 47.4037C138.693 47.674 138.346 47.858 137.968 47.9325C137.59 48.007 137.199 47.9687 136.843 47.8223C136.487 47.6759 136.183 47.4281 135.969 47.1102C135.755 46.7923 135.641 46.4185 135.642 46.0363C135.642 45.5242 135.847 45.0332 136.212 44.6712C136.577 44.3091 137.071 44.1055 137.587 44.1052ZM137.587 43.2209C137.026 43.2209 136.477 43.3862 136.011 43.6957C135.544 44.0052 135.18 44.4451 134.965 44.9599C134.751 45.4746 134.695 46.0409 134.804 46.5873C134.914 47.1337 135.184 47.6355 135.581 48.0293C135.978 48.4232 136.484 48.6913 137.034 48.7999C137.585 48.9084 138.156 48.8525 138.674 48.6392C139.193 48.4258 139.636 48.0647 139.948 47.6014C140.259 47.138 140.425 46.5934 140.425 46.0363C140.424 45.2897 140.125 44.574 139.593 44.0461C139.061 43.5183 138.34 43.2215 137.587 43.2209Z" fill="white"/>
<path d="M137.476 48.4095C138.797 48.4095 139.867 47.347 139.867 46.0363C139.867 44.7256 138.797 43.6631 137.476 43.6631C136.156 43.6631 135.085 44.7256 135.085 46.0363C135.085 47.347 136.156 48.4095 137.476 48.4095Z" fill="#27AAE1"/>
<path d="M137.476 44.1052C137.861 44.105 138.238 44.2182 138.558 44.4304C138.878 44.6426 139.128 44.9444 139.276 45.2975C139.423 45.6506 139.462 46.0392 139.387 46.4141C139.312 46.789 139.126 47.1334 138.854 47.4037C138.581 47.674 138.234 47.858 137.857 47.9325C137.479 48.007 137.087 47.9687 136.732 47.8223C136.376 47.6759 136.072 47.4281 135.858 47.1102C135.644 46.7923 135.53 46.4185 135.53 46.0363C135.531 45.5242 135.736 45.0332 136.101 44.6712C136.465 44.3091 136.96 44.1055 137.476 44.1052ZM137.476 43.2209C136.915 43.2209 136.366 43.3862 135.899 43.6957C135.433 44.0052 135.069 44.4451 134.854 44.9599C134.639 45.4746 134.583 46.0409 134.693 46.5873C134.802 47.1337 135.073 47.6355 135.47 48.0293C135.867 48.4232 136.373 48.6913 136.923 48.7999C137.474 48.9084 138.044 48.8525 138.563 48.6392C139.081 48.4258 139.524 48.0647 139.836 47.6014C140.148 47.138 140.314 46.5934 140.314 46.0363C140.313 45.2897 140.014 44.574 139.482 44.0461C138.95 43.5183 138.228 43.2215 137.476 43.2209Z" fill="white"/>
<path d="M137.364 48.4095C138.685 48.4095 139.756 47.347 139.756 46.0363C139.756 44.7256 138.685 43.6631 137.364 43.6631C136.044 43.6631 134.973 44.7256 134.973 46.0363C134.973 47.347 136.044 48.4095 137.364 48.4095Z" fill="#27AAE1"/>
<path d="M137.365 44.1052C137.75 44.105 138.126 44.2182 138.447 44.4304C138.767 44.6426 139.017 44.9444 139.164 45.2975C139.312 45.6506 139.35 46.0392 139.275 46.4141C139.2 46.789 139.015 47.1334 138.742 47.4037C138.47 47.674 138.123 47.858 137.745 47.9325C137.368 48.007 136.976 47.9687 136.62 47.8223C136.265 47.6759 135.96 47.4281 135.747 47.1102C135.533 46.7923 135.419 46.4185 135.419 46.0363C135.419 45.5242 135.624 45.0332 135.989 44.6712C136.354 44.3091 136.849 44.1055 137.365 44.1052ZM137.365 43.2209C136.803 43.2209 136.255 43.3862 135.788 43.6957C135.321 44.0052 134.958 44.4451 134.743 44.9599C134.528 45.4746 134.472 46.0409 134.581 46.5873C134.691 47.1337 134.961 47.6355 135.358 48.0293C135.755 48.4232 136.261 48.6913 136.812 48.7999C137.362 48.9084 137.933 48.8525 138.451 48.6392C138.97 48.4258 139.413 48.0647 139.725 47.6014C140.037 47.138 140.203 46.5934 140.203 46.0363C140.202 45.2897 139.902 44.574 139.37 44.0461C138.838 43.5183 138.117 43.2215 137.365 43.2209Z" fill="white"/>
<path d="M137.253 48.4095C138.574 48.4095 139.644 47.347 139.644 46.0363C139.644 44.7256 138.574 43.6631 137.253 43.6631C135.932 43.6631 134.862 44.7256 134.862 46.0363C134.862 47.347 135.932 48.4095 137.253 48.4095Z" fill="#27AAE1"/>
<path d="M137.253 44.1052C137.639 44.105 138.015 44.2182 138.335 44.4304C138.656 44.6426 138.905 44.9444 139.053 45.2975C139.2 45.6506 139.239 46.0392 139.164 46.4141C139.089 46.789 138.903 47.1334 138.631 47.4037C138.359 47.674 138.012 47.858 137.634 47.9325C137.256 48.007 136.865 47.9687 136.509 47.8223C136.153 47.6759 135.849 47.4281 135.635 47.1102C135.421 46.7923 135.307 46.4185 135.308 46.0363C135.308 45.5242 135.513 45.0332 135.878 44.6712C136.243 44.3091 136.737 44.1055 137.253 44.1052ZM137.253 43.2209C136.692 43.2209 136.143 43.3862 135.677 43.6957C135.21 44.0052 134.846 44.4451 134.631 44.9599C134.417 45.4746 134.361 46.0409 134.47 46.5873C134.58 47.1337 134.85 47.6355 135.247 48.0293C135.644 48.4232 136.15 48.6913 136.7 48.7999C137.251 48.9084 137.822 48.8525 138.34 48.6392C138.859 48.4258 139.302 48.0647 139.614 47.6014C139.925 47.138 140.091 46.5934 140.091 46.0363C140.09 45.2897 139.791 44.574 139.259 44.0461C138.727 43.5183 138.006 43.2215 137.253 43.2209Z" fill="white"/>
<path d="M137.253 47.9674C138.328 47.9674 139.199 47.1028 139.199 46.0363C139.199 44.9698 138.328 44.1052 137.253 44.1052C136.179 44.1052 135.308 44.9698 135.308 46.0363C135.308 47.1028 136.179 47.9674 137.253 47.9674Z" fill="#B4D8E1"/>
<path d="M159.543 21.3724V30.9669C159.541 31.7736 159.217 32.5467 158.642 33.1168C158.066 33.6869 157.287 34.0077 156.474 34.0089C156.183 34.0099 155.895 33.9536 155.626 33.8434C155.356 33.7332 155.112 33.5711 154.906 33.3666C154.829 33.2887 154.757 33.2052 154.692 33.1168C154.408 32.7383 154.256 32.2788 154.257 31.807V16.8934H150.376V31.807C150.376 32.6017 150.534 33.3887 150.841 34.1229C151.147 34.8572 151.596 35.5243 152.162 36.0863C153.306 37.2212 154.857 37.8588 156.474 37.8588C157.539 37.8577 158.59 37.6118 159.543 37.1404V45.1719C159.544 46.0883 159.184 46.9688 158.54 47.6258C159.971 47.1046 161.206 46.1603 162.079 44.9204C162.952 43.6804 163.421 42.2045 163.422 40.6919V21.3724H159.543Z" fill="#B4D8E1"/>
</svg>
